<svg width="20" height="20" viewBox="0 0 20 20" fill="none" xmlns="http://www.w3.org/2000/svg">
<path d="M16.999 3.33301H3.66502C2.74902 3.33301 2.00702 4.08301 2.00702 5.00001L1.99902 15C1.99902 15.917 2.74902 16.667 3.66502 16.667H16.999C17.915 16.667 18.665 15.917 18.665 15V5.00001C18.665 4.08301 17.915 3.33301 16.999 3.33301ZM16.665 6.87501L10.774 10.559C10.6411 10.6408 10.4881 10.6842 10.332 10.6842C10.1759 10.6842 10.0229 10.6408 9.89002 10.559L3.99902 6.87501C3.91663 6.82751 3.84464 6.76391 3.78737 6.68798C3.7301 6.61206 3.68871 6.52537 3.66567 6.4331C3.64263 6.34083 3.63842 6.24486 3.65329 6.15093C3.66816 6.057 3.7018 5.96702 3.7522 5.88637C3.80261 5.80572 3.86875 5.73606 3.94667 5.68153C4.02459 5.627 4.11269 5.58874 4.20573 5.56901C4.29877 5.54928 4.39482 5.5485 4.48817 5.56671C4.58151 5.58492 4.67023 5.62176 4.74902 5.67501L10.332 9.16701L15.915 5.67501C15.9938 5.62176 16.0825 5.58492 16.1759 5.56671C16.2692 5.5485 16.3653 5.54928 16.4583 5.56901C16.5514 5.58874 16.6395 5.627 16.7174 5.68153C16.7953 5.73606 16.8614 5.80572 16.9118 5.88637C16.9622 5.96702 16.9959 6.057 17.0108 6.15093C17.0256 6.24486 17.0214 6.34083 16.9984 6.4331C16.9753 6.52537 16.934 6.61206 16.8767 6.68798C16.8194 6.76391 16.7474 6.82751 16.665 6.87501Z" fill="#FFBB00"/>
</svg>
