<svg width="20" height="20" viewBox="0 0 20 20" fill="none" xmlns="http://www.w3.org/2000/svg">
<path d="M10.332 1.66701C5.74902 1.66701 1.99902 5.41701 1.99902 10C1.99902 14.583 5.74902 18.333 10.332 18.333C14.915 18.333 18.665 14.583 18.665 10C18.665 5.41701 14.915 1.66701 10.332 1.66701ZM13.29 13.167L9.89002 11.075C9.76761 11.0019 9.66635 10.8982 9.59621 10.774C9.52607 10.6499 9.48948 10.5096 9.49002 10.367V6.45801C9.49441 6.29208 9.56289 6.13429 9.68109 6.01776C9.7993 5.90123 9.95805 5.83502 10.124 5.83301C10.2894 5.83432 10.4476 5.90058 10.5645 6.01751C10.6814 6.13444 10.7477 6.29265 10.749 6.45801V10.166L13.949 12.091C14.249 12.275 14.349 12.666 14.165 12.967C14.0746 13.1085 13.9321 13.2087 13.7685 13.2461C13.6048 13.2835 13.433 13.2551 13.29 13.167Z" fill="#FFBB00"/>
</svg>
