<svg width="32" height="32" viewBox="0 0 32 32" fill="none" xmlns="http://www.w3.org/2000/svg">
<path d="M24.0002 10.6667H22.6668V8.00001C22.6668 4.32001 19.6802 1.33334 16.0002 1.33334C12.3202 1.33334 9.3335 4.32001 9.3335 8.00001V10.6667H8.00016C6.5335 10.6667 5.3335 11.8667 5.3335 13.3333V26.6667C5.3335 28.1333 6.5335 29.3333 8.00016 29.3333H24.0002C25.4668 29.3333 26.6668 28.1333 26.6668 26.6667V13.3333C26.6668 11.8667 25.4668 10.6667 24.0002 10.6667ZM16.0002 22.6667C14.5335 22.6667 13.3335 21.4667 13.3335 20C13.3335 18.5333 14.5335 17.3333 16.0002 17.3333C17.4668 17.3333 18.6668 18.5333 18.6668 20C18.6668 21.4667 17.4668 22.6667 16.0002 22.6667ZM12.0002 10.6667V8.00001C12.0002 5.78668 13.7868 4.00001 16.0002 4.00001C18.2135 4.00001 20.0002 5.78668 20.0002 8.00001V10.6667H12.0002Z" fill="#FFBB00"/>
</svg>
