<svg width="18" height="10" viewBox="0 0 18 10" fill="none" xmlns="http://www.w3.org/2000/svg">
<path fill-rule="evenodd" clip-rule="evenodd" d="M11.7526 0.335647C12.1195 -0.0771359 12.7516 -0.114317 13.1644 0.252601L17.6644 4.2526C17.8779 4.44237 18 4.71437 18 5.00001C18 5.28565 17.8779 5.55765 17.6644 5.74742L13.1644 9.74742C12.7516 10.1143 12.1195 10.0772 11.7526 9.66437C11.3857 9.25159 11.4229 8.61952 11.8356 8.2526L14.3698 6.00001H1C0.447715 6.00001 0 5.5523 0 5.00001C0 4.44773 0.447715 4.00001 1 4.00001H14.3698L11.8356 1.74742C11.4229 1.3805 11.3857 0.74843 11.7526 0.335647Z" fill="#332200"/>
</svg>
