<svg width="20" height="20" viewBox="0 0 20 20" fill="none" xmlns="http://www.w3.org/2000/svg">
<path d="M15.503 12.717L13.386 12.475C13.1372 12.4458 12.8851 12.4734 12.6485 12.5557C12.4119 12.638 12.197 12.7728 12.02 12.95L10.486 14.483C8.12072 13.2799 6.19815 11.3573 4.99503 8.992L6.53603 7.45C6.89503 7.092 7.07003 6.592 7.01103 6.083L6.77003 3.983C6.72266 3.57641 6.52744 3.20143 6.22153 2.92944C5.91562 2.65746 5.52037 2.50746 5.11103 2.508H3.67003C2.72803 2.508 1.94503 3.292 2.00303 4.233C2.44503 11.35 8.13603 17.033 15.245 17.475C16.186 17.533 16.97 16.75 16.97 15.808V14.367C16.9721 13.9594 16.8234 13.5655 16.5526 13.2609C16.2818 12.9564 15.908 12.7626 15.503 12.717Z" fill="#FFBB00"/>
</svg>
