<svg width="140" height="37" viewBox="0 0 140 37" fill="none" xmlns="http://www.w3.org/2000/svg">
<path d="M11.394 21.7241V26.5835C11.394 29.0132 10.274 29.8893 8.494 29.8893C6.714 29.8893 5.595 29.0132 5.595 26.5835V8.21305C5.595 5.78334 6.715 4.85942 8.495 4.85942C10.275 4.85942 11.394 5.78334 11.394 8.21305V11.8581H16.684V8.55319C16.684 3.10999 13.835 0 8.342 0C2.848 0 0 3.10999 0 8.55319V26.2433C0 31.6865 2.848 34.7975 8.342 34.7975C13.835 34.7975 16.684 31.6865 16.684 26.2433V21.7241H11.394ZM32.503 0.388868L38.2 34.4086H32.554L31.587 28.2364H24.721L23.754 34.4086H18.617L24.314 0.388868H32.503ZM28.078 6.41489L25.433 23.6197H30.824L28.18 6.41394H28.079L28.078 6.41489ZM58.19 34.4086H52.493C52.188 33.5334 51.984 32.9984 51.984 30.2285V24.8828C51.984 21.7241 50.865 20.5575 48.322 20.5575H46.389V34.4086H40.794V0.388868H49.238C55.036 0.388868 57.528 2.96476 57.528 8.214V10.8864C57.528 14.3853 56.358 16.621 53.866 17.7389C56.664 18.9533 57.579 21.4804 57.579 25.029V30.2773C57.579 31.9302 57.631 33.1446 58.19 34.4086ZM49.085 5.24829H46.389V15.698H48.576C50.662 15.698 51.933 14.8238 51.933 12.1017V8.7481C51.933 6.31839 51.069 5.24829 49.085 5.24829ZM75.242 0.388868L80.939 34.4086H75.293L74.327 28.2364H67.46L66.494 34.4086H61.356L67.053 0.388868H75.242ZM70.817 6.41489L68.172 23.6197H73.564L70.919 6.41394H70.817V6.41489ZM86.115 0.388868H80.469L85.962 34.4086H94.304L99.797 0.388868H94.66L90.438 28.138H90.336L86.115 0.388868ZM113.213 0.388868L118.91 34.4086H113.264L112.298 28.2364H105.431L104.464 34.4086H99.327L105.024 0.388868H113.213ZM108.788 6.41489L106.143 23.6197H111.535L108.89 6.41394H108.788V6.41489ZM134.252 34.4086H140V0.388868H135.015V20.7514H134.913L129.267 0.388868H122.248V34.4086H127.284V9.76757H127.385L134.252 34.4086Z" fill="#9C9C9C"/>
</svg>
