<svg width="152" height="38" viewBox="0 0 152 38" fill="none" xmlns="http://www.w3.org/2000/svg">
<path fill-rule="evenodd" clip-rule="evenodd" d="M23.024 16.0994H25.741C28.549 16.0994 30.066 19.2447 28.237 21.2827L25.577 24.2446C25.8651 26.0013 26.836 27.5895 28.296 28.6922C29.7574 29.7955 31.6 30.3324 33.457 30.196C35.3141 30.0597 37.0492 29.2601 38.317 27.9565C39.5838 26.6534 40.2891 24.9415 40.292 23.163C40.2918 22.8536 40.3554 22.5472 40.4792 22.2613C40.6031 21.9755 40.7848 21.7158 41.0138 21.4971C41.2429 21.2784 41.5149 21.105 41.8142 20.9869C42.1135 20.8688 42.4342 20.8083 42.758 20.8088C43.4117 20.809 44.0386 21.0571 44.5011 21.4984C44.9636 21.9398 45.224 22.5384 45.225 23.163C45.2248 25.6337 44.4103 28.0416 42.897 30.0451C41.764 31.5421 40.2789 32.7639 38.5612 33.6122C36.8436 34.4605 34.9414 34.9116 33.008 34.9291C31.0745 34.9466 29.1638 34.53 27.4297 33.7129C25.6956 32.8958 24.1865 31.701 23.024 30.2247C21.8616 31.701 20.3525 32.8958 18.6184 33.7129C16.8842 34.53 14.9735 34.9466 13.0401 34.9291C11.1066 34.9116 9.20446 34.4605 7.48682 33.6122C5.76919 32.7639 4.28405 31.5421 3.15102 30.0451C1.63737 28.0418 0.822497 25.6338 0.822022 23.163C0.821759 22.8535 0.885411 22.5471 1.00933 22.2611C1.13325 21.9752 1.31501 21.7154 1.54418 21.4967C1.77336 21.278 2.04545 21.1047 2.34486 20.9866C2.64427 20.8686 2.96512 20.8081 3.28902 20.8088C3.94271 20.809 4.56959 21.0571 5.0321 21.4984C5.49461 21.9398 5.75496 22.5384 5.75602 23.163C5.75325 24.9443 6.45555 26.6607 7.72202 27.968C8.66766 28.9439 9.88206 29.6453 11.2259 29.9918C12.5698 30.3383 13.9886 30.3159 15.3198 29.9271C16.6509 29.5383 17.8403 28.7988 18.7516 27.7935C19.6629 26.7883 20.2592 25.5579 20.472 24.2436L17.81 21.2817C15.982 19.2447 17.498 16.1003 20.31 16.1003L23.024 16.0994Z" fill="#9C9C9C"/>
<path d="M34.5349 9.82207C35.1825 9.82257 35.8238 9.70117 36.4223 9.46479C37.0207 9.22842 37.5646 8.88171 38.0228 8.44446C38.481 8.00722 38.8445 7.488 39.0927 6.91649C39.3408 6.34497 39.4686 5.73235 39.4689 5.11361C39.4686 4.49488 39.3408 3.88225 39.0927 3.31073C38.8445 2.73922 38.481 2.22001 38.0228 1.78276C37.5646 1.34552 37.0207 0.998802 36.4223 0.762428C35.8238 0.526054 35.1825 0.404651 34.5349 0.405153C33.8874 0.404776 33.2461 0.526273 32.6478 0.762703C32.0494 0.999133 31.5057 1.34587 31.0476 1.7831C30.5895 2.22033 30.2261 2.7395 29.978 3.31096C29.73 3.88241 29.6021 4.49496 29.6019 5.11361C29.6021 5.73227 29.73 6.34481 29.978 6.91627C30.2261 7.48772 30.5895 8.00689 31.0476 8.44412C31.5057 8.88136 32.0494 9.22809 32.6478 9.46452C33.2461 9.70095 33.8874 9.82244 34.5349 9.82207ZM11.5119 9.82207C12.1594 9.82244 12.8006 9.70095 13.399 9.46452C13.9973 9.22809 14.5411 8.88136 14.9991 8.44412C15.4572 8.00689 15.8207 7.48772 16.0687 6.91627C16.3168 6.34481 16.4446 5.73227 16.4449 5.11361C16.4446 4.49496 16.3168 3.88241 16.0687 3.31096C15.8207 2.7395 15.4572 2.22033 14.9991 1.7831C14.5411 1.34587 13.9973 0.999133 13.399 0.762703C12.8006 0.526273 12.1594 0.404776 11.5119 0.405153C10.8643 0.404651 10.223 0.526054 9.62449 0.762428C9.02602 0.998802 8.48216 1.34552 8.02397 1.78276C7.56578 2.22001 7.20223 2.73922 6.95411 3.31073C6.70599 3.88225 6.57814 4.49488 6.57788 5.11361C6.57814 5.73235 6.70599 6.34497 6.95411 6.91649C7.20223 7.488 7.56578 8.00722 8.02397 8.44446C8.48216 8.88171 9.02602 9.22842 9.62449 9.46479C10.223 9.70117 10.8643 9.82257 11.5119 9.82207ZM79.4449 1.55551C80.2049 1.55551 80.8289 1.76285 81.3169 2.17751C81.8049 2.59218 82.0489 3.13678 82.0489 3.81133V27.0622C82.0489 27.7626 81.8189 28.3196 81.3569 28.7342C80.8969 29.1489 80.2859 29.3562 79.5269 29.3562C78.7669 29.3562 78.1569 29.1489 77.6949 28.7352C77.2339 28.3196 77.0029 27.7626 77.0029 27.0632V26.0905C76.4059 27.153 75.5379 27.9823 74.3979 28.5785C73.2859 29.1747 72.0109 29.4728 70.5729 29.4728C68.8629 29.4728 67.3309 29.0581 65.9749 28.2288C64.6449 27.3995 63.6009 26.2329 62.8409 24.729C62.1079 23.2003 61.7419 21.4509 61.7419 19.4807C61.7419 17.5106 62.1079 15.7869 62.8409 14.3089C63.6009 12.8317 64.6449 11.6909 65.9749 10.8874C67.3039 10.0839 68.8369 9.68162 70.5729 9.68162C72.0109 9.68162 73.2859 9.9673 74.3989 10.5377C75.4834 11.0821 76.3751 11.9208 76.9619 12.9483V3.73299C76.9619 3.08519 77.1789 2.56638 77.6129 2.17751C78.0749 1.76285 78.6849 1.55551 79.4449 1.55551ZM71.9159 25.7016C73.5439 25.7016 74.7919 25.1704 75.6599 24.107C76.5549 23.0445 77.0029 21.5273 77.0029 19.5581C77.0029 17.588 76.5549 16.0841 75.6599 15.0484C74.7919 13.985 73.5579 13.4528 71.9569 13.4528C70.3289 13.4528 69.0669 13.9716 68.1719 15.0092C67.2769 16.0459 66.8289 17.5364 66.8289 19.4807C66.8289 21.4509 67.2769 22.9796 68.1719 24.0688C69.0669 25.158 70.3149 25.7016 71.9159 25.7016ZM96.3569 29.4728C94.3229 29.4728 92.5319 29.0715 90.9859 28.268C89.4659 27.4645 88.2859 26.3112 87.4449 24.8073C86.6039 23.3035 86.1829 21.554 86.1829 19.5581C86.1829 17.5622 86.6029 15.8252 87.4449 14.348C88.2859 12.8442 89.4659 11.6909 90.9849 10.8874C92.5319 10.0839 94.3229 9.68162 96.3569 9.68162C98.3919 9.68162 100.169 10.0829 101.688 10.8874C103.211 11.6677 104.447 12.8756 105.229 14.348C106.07 15.8252 106.491 17.5622 106.491 19.5581C106.491 21.555 106.07 23.3035 105.229 24.8073C104.447 26.2798 103.211 27.4877 101.688 28.268C100.169 29.0706 98.3909 29.4728 96.3569 29.4728ZM96.3169 25.7016C97.9719 25.7016 99.2329 25.1828 100.101 24.1462C100.97 23.1095 101.404 21.5798 101.404 19.5581C101.404 17.5622 100.97 16.0459 100.101 15.0092C99.2329 13.9458 97.9849 13.4146 96.3569 13.4146C94.7299 13.4146 93.4669 13.9458 92.5729 15.0092C91.7049 16.0459 91.2699 17.5622 91.2699 19.5581C91.2699 21.5798 91.7039 23.1095 92.5729 24.1462C93.4409 25.1828 94.6889 25.7016 96.3169 25.7016ZM127.538 9.75996C128.298 9.75996 128.908 9.9673 129.369 10.381C129.831 10.7966 130.061 11.3537 130.061 12.053V27.4119C130.061 30.3929 129.193 32.6478 127.457 34.1784C125.72 35.7071 123.157 36.4715 119.765 36.4715C116.808 36.4715 114.339 35.9412 112.359 34.8778C111.355 34.3074 110.853 33.6204 110.853 32.8169C110.853 32.2465 110.989 31.7936 111.26 31.4563C111.558 31.119 111.938 30.9499 112.399 30.9499C112.644 30.9499 112.942 31.0025 113.295 31.1066C113.647 31.2356 114.014 31.3789 114.393 31.5337C115.243 31.8791 116.112 32.1777 116.998 32.428C117.785 32.6353 118.68 32.7395 119.684 32.7395C123.238 32.7395 125.015 31.0808 125.015 27.7616V25.2736C124.418 26.337 123.55 27.1654 122.411 27.7626C121.271 28.333 119.969 28.6177 118.504 28.6177C116.767 28.6177 115.221 28.2288 113.864 27.452C112.535 26.6475 111.491 25.5335 110.731 24.108C109.971 22.6815 109.591 21.0362 109.591 19.1692C109.591 17.3032 109.958 15.657 110.69 14.2315C111.45 12.7792 112.508 11.6651 113.864 10.8874C115.221 10.0839 116.767 9.68162 118.504 9.68162C119.969 9.68162 121.271 9.97972 122.411 10.5759C123.521 11.1188 124.43 11.9738 125.015 13.0257V12.0148C125.015 11.3412 125.246 10.7966 125.707 10.381C126.168 9.9673 126.779 9.75996 127.538 9.75996ZM119.847 24.8465C121.475 24.8465 122.736 24.3401 123.631 23.3302C124.554 22.3184 125.015 20.932 125.015 19.1692C125.015 17.3806 124.554 15.9809 123.631 14.97C122.736 13.9592 121.475 13.4537 119.847 13.4537C118.246 13.4537 116.984 13.9592 116.062 14.97C115.14 15.9809 114.678 17.3806 114.678 19.1692C114.678 20.932 115.14 22.3184 116.062 23.3302C116.984 24.3411 118.246 24.8465 119.847 24.8465ZM142.533 29.4728C139.576 29.4728 137.189 28.9158 135.371 27.8008C134.503 27.3087 134.069 26.6084 134.069 25.7016C134.069 25.1828 134.218 24.7682 134.516 24.4577C134.815 24.1204 135.181 23.9513 135.615 23.9513C136.076 23.9513 136.714 24.1596 137.528 24.5742C138.396 24.9631 139.183 25.2612 139.888 25.4685C140.621 25.6759 141.543 25.779 142.655 25.779C143.795 25.779 144.677 25.5975 145.301 25.2344C145.952 24.8714 146.277 24.3669 146.277 23.7181C146.277 23.2786 146.142 22.928 145.87 22.6691C145.626 22.4092 145.165 22.176 144.487 21.9687C143.835 21.7356 142.832 21.4767 141.475 21.191C139.061 20.7247 137.324 20.0635 136.266 19.2084C135.235 18.3533 134.72 17.1733 134.72 15.6704C134.72 14.5296 135.072 13.5053 135.778 12.5977C136.483 11.6651 137.446 10.9524 138.667 10.4594C139.915 9.9415 141.326 9.68162 142.899 9.68162C144.039 9.68162 145.138 9.82493 146.196 10.1097C147.205 10.3487 148.167 10.7424 149.045 11.2753C149.913 11.7941 150.347 12.4811 150.347 13.3372C150.347 13.855 150.198 14.2964 149.899 14.6586C149.601 14.9958 149.234 15.1649 148.8 15.1649C148.502 15.1649 148.203 15.1124 147.905 15.0092C147.548 14.8355 147.195 14.6539 146.847 14.4646C146.06 14.0757 145.382 13.791 144.812 13.6095C144.242 13.4021 143.537 13.298 142.696 13.298C141.692 13.298 140.892 13.4929 140.295 13.8808C139.725 14.2697 139.44 14.8019 139.44 15.4755C139.44 16.1233 139.739 16.6163 140.336 16.9526C140.933 17.2899 142.086 17.6271 143.795 17.9644C145.613 18.3275 147.037 18.7412 148.068 19.2084C149.099 19.6747 149.831 20.2584 150.265 20.9578C150.727 21.6582 150.957 22.5525 150.957 23.6407C150.957 25.4035 150.184 26.8167 148.638 27.8791C147.118 28.9416 145.083 29.4728 142.533 29.4728Z" fill="#9C9C9C"/>
</svg>
