<svg width="164" height="37" viewBox="0 0 164 37" fill="none" xmlns="http://www.w3.org/2000/svg">
<g clip-path="url(#clip0_20_59)">
<path d="M2.688 28.7323C1.876 28.7323 1.218 28.4915 0.714 28.01C0.238 27.5284 0 26.8997 0 26.1239V2.64851C0 1.87268 0.224 1.27075 0.672 0.842707C1.148 0.414665 1.792 0.200644 2.604 0.200644H17.346C19.054 0.200644 19.908 0.896212 19.908 2.28735C19.908 3.65173 19.054 4.33392 17.346 4.33392H5.334V12.0387H16.506C18.214 12.0387 19.068 12.7342 19.068 14.1254C19.068 15.4898 18.214 16.1719 16.506 16.1719H5.334V26.1239C5.334 26.8997 5.096 27.5284 4.62 28.01C4.144 28.4915 3.5 28.7323 2.688 28.7323ZM27.613 28.7323C26.857 28.7323 26.227 28.5316 25.723 28.1304C25.247 27.7023 25.009 27.1004 25.009 26.3246V2.3676C25.009 1.59178 25.247 1.00322 25.723 0.601933C26.227 0.200645 26.857 0 27.613 0C28.369 0 28.999 0.200645 29.503 0.601933C30.007 1.00322 30.259 1.59178 30.259 2.3676V26.3246C30.259 27.1004 30.007 27.7023 29.503 28.1304C28.999 28.5316 28.369 28.7323 27.613 28.7323ZM51.927 23.1142C52.403 23.1142 52.781 23.2881 53.061 23.6359C53.369 23.9837 53.523 24.4519 53.523 25.0404C53.523 25.8698 53.005 26.5653 51.969 27.1271C51.017 27.6354 49.939 28.0501 48.735 28.3711C47.531 28.6654 46.383 28.8125 45.291 28.8125C41.987 28.8125 39.369 27.903 37.437 26.0838C35.505 24.2646 34.539 21.7766 34.539 18.6198C34.539 16.6134 34.959 14.8343 35.799 13.2827C36.639 11.731 37.815 10.5271 39.327 9.67106C40.867 8.81498 42.603 8.38694 44.535 8.38694C46.383 8.38694 47.993 8.77485 49.365 9.55068C50.737 10.3265 51.801 11.4234 52.557 12.8412C53.313 14.2591 53.691 15.9312 53.691 17.8574C53.691 19.0077 53.159 19.5829 52.095 19.5829H39.705C39.873 21.4288 40.419 22.7932 41.343 23.6761C42.267 24.5321 43.611 24.9602 45.375 24.9602C46.271 24.9602 47.055 24.8532 47.727 24.6391C48.427 24.4251 49.211 24.1308 50.079 23.7563C50.919 23.3283 51.535 23.1142 51.927 23.1142ZM44.66 11.9183C43.232 11.9183 42.084 12.3463 41.216 13.2024C40.376 14.0585 39.872 15.2891 39.704 16.8943H49.196C49.14 15.2624 48.72 14.0317 47.936 13.2024C47.152 12.3463 46.06 11.9183 44.66 11.9183ZM75.383 24.7997C75.887 25.2812 76.139 25.8296 76.139 26.4449C76.139 27.0335 75.901 27.5686 75.425 28.0501C74.949 28.5049 74.389 28.7323 73.745 28.7323C73.045 28.7323 72.443 28.4514 71.939 27.8896L66.017 21.6295L60.095 27.8896C59.563 28.4246 58.961 28.6922 58.289 28.6922C57.673 28.6922 57.127 28.4648 56.651 28.01C56.175 27.5552 55.937 27.0335 55.937 26.4449C55.937 25.8296 56.189 25.2812 56.693 24.7997L62.825 18.4192L57.029 12.3998C56.525 11.9183 56.273 11.3699 56.273 10.7545C56.273 10.1392 56.511 9.61756 56.987 9.18952C57.463 8.73472 58.009 8.50733 58.625 8.50733C59.297 8.50733 59.899 8.77485 60.431 9.30991L66.017 15.1687L71.603 9.30991C72.135 8.77485 72.737 8.50733 73.409 8.50733C74.053 8.50733 74.599 8.73472 75.047 9.18952C75.523 9.61756 75.761 10.1392 75.761 10.7545C75.761 11.3699 75.509 11.9183 75.005 12.3998L69.209 18.4192L75.383 24.7997ZM98.619 13.8846C100.327 14.3394 101.643 15.1687 102.567 16.3726C103.519 17.5765 103.995 19.0479 103.995 20.7868C103.995 23.1945 103.085 25.0806 101.265 26.4449C99.473 27.8093 96.995 28.4915 93.831 28.4915H82.995C82.183 28.4915 81.539 28.2775 81.063 27.8495C80.615 27.4214 80.391 26.8195 80.391 26.0437V2.64851C80.391 1.87268 80.615 1.27075 81.063 0.842707C81.539 0.414665 82.183 0.200644 82.995 0.200644H93.41C96.49 0.200644 98.898 0.856083 100.634 2.16696C102.398 3.45109 103.28 5.25689 103.28 7.58436C103.28 9.08251 102.86 10.38 102.02 11.4769C101.208 12.5737 100.074 13.3763 98.618 13.8846H98.619ZM85.683 12.1189H92.529C96.253 12.1189 98.115 10.7947 98.115 8.14617C98.115 6.80854 97.653 5.81869 96.729 5.17663C95.805 4.53457 94.405 4.21353 92.529 4.21353H85.683V12.1189ZM93.243 24.4786C95.203 24.4786 96.631 24.1442 97.527 23.4754C98.423 22.8066 98.871 21.7632 98.871 20.3454C98.871 18.9275 98.409 17.8707 97.485 17.1752C96.589 16.4796 95.175 16.1318 93.243 16.1318H85.683V24.4786H93.243ZM111.203 28.7323C110.447 28.7323 109.817 28.5316 109.313 28.1304C108.837 27.7023 108.599 27.1004 108.599 26.3246V2.3676C108.599 1.59178 108.837 1.00322 109.313 0.601933C109.817 0.200645 110.447 0 111.203 0C111.959 0 112.589 0.200645 113.093 0.601933C113.597 1.00322 113.849 1.59178 113.849 2.3676V26.3246C113.849 27.1004 113.597 27.7023 113.093 28.1304C112.589 28.5316 111.959 28.7323 111.203 28.7323ZM128.629 28.8125C126.529 28.8125 124.681 28.3979 123.085 27.5686C121.517 26.7392 120.299 25.5487 119.431 23.9971C118.563 22.4454 118.129 20.6396 118.129 18.5797C118.129 16.5197 118.563 14.7273 119.431 13.2024C120.299 11.6508 121.517 10.4603 123.085 9.63094C124.681 8.80161 126.529 8.38694 128.629 8.38694C130.729 8.38694 132.563 8.80161 134.131 9.63094C135.703 10.4364 136.978 11.6829 137.785 13.2024C138.653 14.7273 139.087 16.5197 139.087 18.5797C139.087 20.6396 138.653 22.4454 137.785 23.9971C136.978 25.5166 135.703 26.7631 134.131 27.5686C132.563 28.3979 130.729 28.8125 128.629 28.8125ZM128.587 24.92C130.295 24.92 131.597 24.385 132.493 23.3149C133.389 22.2448 133.837 20.6664 133.837 18.5797C133.837 16.5197 133.389 14.9547 132.493 13.8846C131.597 12.7877 130.309 12.2393 128.629 12.2393C126.949 12.2393 125.647 12.7877 124.723 13.8846C123.827 14.9547 123.379 16.5197 123.379 18.5797C123.379 20.6664 123.827 22.2448 124.723 23.3149C125.619 24.385 126.907 24.92 128.587 24.92ZM160.809 8.4672C161.593 8.4672 162.223 8.68122 162.699 9.10926C163.175 9.5373 163.413 10.1125 163.413 10.8348V26.6857C163.413 29.7623 162.517 32.0897 160.725 33.6681C158.933 35.2465 156.287 36.0358 152.787 36.0358C149.735 36.0358 147.187 35.4873 145.143 34.3905C144.107 33.8019 143.589 33.093 143.589 32.2636C143.589 31.6751 143.729 31.2069 144.009 30.8591C144.317 30.5113 144.709 30.3375 145.185 30.3375C145.437 30.3375 145.745 30.391 146.109 30.498C146.473 30.6317 146.851 30.7789 147.243 30.9394C148.251 31.3407 149.147 31.6483 149.931 31.8623C150.743 32.0764 151.667 32.1834 152.703 32.1834C156.371 32.1834 158.205 30.4712 158.205 27.0469V24.4786C157.589 25.5755 156.693 26.4316 155.517 27.0469C154.341 27.6354 152.997 27.9297 151.485 27.9297C149.693 27.9297 148.097 27.5284 146.697 26.7258C145.325 25.8965 144.247 24.7462 143.463 23.2748C142.679 21.8034 142.287 20.1046 142.287 18.1784C142.287 16.2522 142.665 14.5534 143.421 13.082C144.205 11.5839 145.297 10.4335 146.697 9.63094C148.097 8.80161 149.693 8.38694 151.485 8.38694C152.997 8.38694 154.341 8.6946 155.517 9.30991C156.663 9.86995 157.601 10.7524 158.205 11.838V10.7947C158.205 10.0991 158.443 9.5373 158.919 9.10926C159.395 8.68122 160.025 8.4672 160.809 8.4672ZM152.871 24.0372C154.551 24.0372 155.853 23.5155 156.777 22.4722C157.729 21.4288 158.205 19.9976 158.205 18.1784C158.205 16.3325 157.729 14.8878 156.777 13.8445C155.853 12.8011 154.551 12.2794 152.871 12.2794C151.219 12.2794 149.917 12.8011 148.965 13.8445C148.013 14.8878 147.537 16.3325 147.537 18.1784C147.537 19.9976 148.013 21.4288 148.965 22.4722C149.917 23.5155 151.219 24.0372 152.871 24.0372Z" fill="#9C9C9C"/>
</g>
<defs>
<clipPath id="clip0_20_59">
<rect width="164" height="36.3071" fill="white"/>
</clipPath>
</defs>
</svg>
