<svg width="139" height="48" viewBox="0 0 139 48" fill="none" xmlns="http://www.w3.org/2000/svg">
<g clip-path="url(#clip0_20_57)">
<path d="M24.912 10.3036L20.31 37.3409H13.698L15.378 27.5781H8.256L6.61 37.3409H0L4.639 10.3036H11.214L9.242 21.7193H16.364L18.338 10.3036H24.912ZM38.473 37.3409L38.693 31.4458H32.593L30.803 37.3409H23.826L33.214 10.3036H45.267L45.414 37.3409H38.473ZM36.976 16.8752L34.091 26.4134H38.876L39.277 16.8761L36.976 16.8752ZM73.783 10.3036L69.18 37.3409H62.568L57.967 22.5467L55.483 37.3419H48.87L53.509 10.3036H60.303L64.833 24.1232L67.206 10.3036H73.783ZM89.208 10.3036C92.398 10.3036 94.675 11.13 96.038 12.782C97.037 14.0336 97.535 15.5987 97.535 17.4761C97.535 18.1526 97.475 18.8654 97.354 19.6163L95.929 27.9909C95.442 30.819 94.248 33.0853 92.349 34.7879C90.449 36.4905 87.99 37.3409 84.969 37.3409H74.34L78.98 10.3036H89.208ZM86.906 16.1624H84.532L81.939 31.4821H85.409C86.553 31.4821 87.442 31.1687 88.075 30.5438C88.733 29.8922 89.183 28.8412 89.425 27.3899L90.486 21.2311C90.578 20.7342 90.627 20.2317 90.632 19.7281C90.632 17.3491 89.391 16.1624 86.906 16.1624ZM117.112 37.3409H98.775L103.416 10.3036H121.753L120.73 16.1624H108.968L108.128 21.232H117.844L116.822 27.0889H107.105L106.375 31.483H118.137L117.112 37.3409ZM137.977 37.3409H121.32L125.96 10.3036H132.535L128.919 31.483H139L137.977 37.3409ZM73.471 42.1525H137.014L135.029 47.7725H71.486L73.471 42.1525ZM6.95 0H76.45L74.464 5.61996H4.964L6.95 0Z" fill="#9C9C9C"/>
</g>
<defs>
<clipPath id="clip0_20_57">
<rect width="139" height="47.7725" fill="white"/>
</clipPath>
</defs>
</svg>
