<svg width="208" height="40" viewBox="0 0 208 40" fill="none" xmlns="http://www.w3.org/2000/svg">
<mask id="mask0_20_51" style="mask-type:luminance" maskUnits="userSpaceOnUse" x="0" y="0" width="208" height="40">
<path d="M0 0H208V39.1735H0V0Z" fill="white"/>
</mask>
<g mask="url(#mask0_20_51)">
<path fill-rule="evenodd" clip-rule="evenodd" d="M13.935 34.5137C13.8021 34.5125 13.6713 34.4823 13.5526 34.4253C13.4338 34.3684 13.3303 34.2861 13.25 34.185C13.0219 33.8953 12.8678 33.5586 12.8 33.2019C12.6916 32.7477 12.6081 32.2885 12.55 31.826C12.4809 31.2305 12.4455 30.6318 12.444 30.0326C12.4234 28.7161 12.4281 27.3992 12.458 26.0828C12.476 25.2745 12.484 24.6439 12.484 24.1891V9.13886C12.484 8.39743 12.489 7.83371 12.498 7.44675C12.507 7.0598 12.538 6.6222 12.589 6.13397C12.619 5.7709 12.685 5.41165 12.788 5.061C12.888 4.7906 13.021 4.53263 13.183 4.2909C13.333 4.03771 13.551 3.82847 13.816 3.68515C14.124 3.53801 14.441 3.40807 14.765 3.29341C15.1825 3.14514 15.6152 3.03946 16.056 2.97812C16.6303 2.89801 17.2064 2.83047 17.784 2.77556V1.38538L17.334 0.955427H1.41199L0.98999 1.38538V2.57205C3.66199 2.72397 5.15599 3.4482 5.47199 4.74379C5.65599 5.83778 5.74399 6.94419 5.73599 8.05155V31.1037C5.7802 32.3011 5.72704 33.5 5.57699 34.6895C5.50399 34.8749 5.39699 35.0449 5.26099 35.194C5.05736 35.4267 4.84211 35.6499 4.61599 35.8628C4.43684 36.0282 4.26534 36.201 4.10199 36.3806V37.2644C17.689 37.2644 26.099 37.3485 29.332 37.5176L30.467 33.8563L29.755 33.3758C24.505 34.0073 19.225 34.3866 13.936 34.5127L13.935 34.5137ZM39.191 23.9598C39.1394 23.9736 39.0865 23.9819 39.033 23.9846C38.77 23.9846 38.638 23.8929 38.638 23.7076C38.639 22.8706 38.705 22.0346 38.836 21.2071C38.984 20.3052 39.231 19.4205 39.574 18.5691C39.9045 17.706 40.3578 16.8903 40.921 16.1452C41.5179 15.3871 42.2931 14.7739 43.1839 14.3549C44.0747 13.936 45.0562 13.7232 46.049 13.7336C46.7654 13.6956 47.4799 13.8363 48.1223 14.1419C48.7647 14.4474 49.3128 14.9073 49.713 15.4764C50.5441 16.6533 50.977 18.0457 50.953 19.4654C50.9495 19.7256 50.8629 19.9786 50.705 20.1906C50.547 20.4027 50.3252 20.5636 50.069 20.652C48.6253 21.2079 47.1511 21.6885 45.653 22.0919C43.5459 22.6843 41.4458 23.299 39.353 23.9359C39.2982 23.9381 39.2439 23.9461 39.191 23.9598ZM54.851 31.8375C51.686 33.6719 48.953 34.5892 46.653 34.5892C45.0948 34.6215 43.5649 34.189 42.276 33.3519C41.077 32.5831 40.1236 31.5128 39.521 30.2591C38.9277 29.0018 38.6264 27.6367 38.638 26.2577C50.133 22.841 55.933 21.1317 56.038 21.1317C56.4945 21.0424 56.9024 20.7998 57.1877 20.4478C57.473 20.0958 57.6168 19.6577 57.593 19.2131C57.6243 17.9736 57.3201 16.7474 56.71 15.6531C56.1528 14.6744 55.3282 13.8585 54.324 13.2922C53.3108 12.724 52.2128 12.3068 51.068 12.0549C49.8262 11.7863 48.5562 11.6548 47.283 11.6632C44.999 11.6293 42.7339 12.0643 40.641 12.9387C38.7956 13.7003 37.1651 14.8685 35.883 16.3477C34.6742 17.7781 33.7413 19.4025 33.128 21.145C32.492 22.9381 32.171 24.8193 32.178 26.7125C32.178 30.6011 33.278 33.5133 35.474 35.4491C37.46 37.2167 40.264 38.0995 43.884 38.0995C45.9596 38.0792 48.0026 37.6042 49.856 36.7112C52.0879 35.6491 54.2259 34.4157 56.249 33.0232L55.672 32.041L54.851 31.8375ZM90.36 5.21387C89.6536 3.45086 88.2663 2.0139 86.484 1.19907C84.2762 0.311596 81.8914 -0.101975 79.498 -0.0124438C77.7514 -0.0220163 76.0106 0.181548 74.318 0.593311C72.7435 0.976358 71.2404 1.58968 69.862 2.41153C68.5118 3.22476 67.4077 4.36109 66.659 5.70784C65.8463 7.18092 65.4379 8.82688 65.472 10.4918C65.4711 11.6836 65.7742 12.8576 66.355 13.9123C66.9098 14.9561 67.6606 15.8937 68.57 16.6783C69.548 17.5025 70.5874 18.2577 71.68 18.938C72.7766 19.6361 73.9123 20.2765 75.082 20.8565C76.1816 21.3965 77.2631 21.9694 78.325 22.5744C79.205 23.0502 80.031 23.613 80.79 24.2531C82.74 25.9873 83.716 27.6364 83.716 29.2024C83.7124 30.0342 83.5304 30.8565 83.1813 31.6185C82.8321 32.3805 82.3232 33.066 81.686 33.6328C81.0534 34.2549 80.2946 34.7471 79.456 35.0793C78.6174 35.4115 77.7167 35.5767 76.809 35.5647C75.7476 35.5938 74.6933 35.3905 73.7269 34.9704C72.7604 34.5502 71.9073 33.9244 71.233 33.1407C69.8337 31.6097 69.0696 29.6422 69.085 27.6096L68.058 27.2561L62.812 32.8866C64.0109 34.5444 65.6364 35.8794 67.532 36.7628C69.4594 37.6663 71.5802 38.1291 73.727 38.1148C75.6858 38.1054 77.6321 37.8155 79.501 37.2549C81.3805 36.7143 83.1727 35.9281 84.827 34.9188C86.3996 33.9593 87.7351 32.6846 88.741 31.183C89.7269 29.7552 90.2539 28.0829 90.257 26.3723C90.2649 25.4543 90.0954 24.5429 89.757 23.6837C89.4439 22.8858 89.0085 22.1368 88.465 21.4613C87.8251 20.7113 87.0848 20.0451 86.263 19.4797C85.3651 18.8327 84.4274 18.2377 83.455 17.6978C82.2911 17.0642 81.1135 16.4538 79.923 15.8671C79.0929 15.4827 78.2752 15.0742 77.471 14.6422C76.7105 14.2176 75.9704 13.7604 75.253 13.2721C74.5175 12.7904 73.8453 12.2258 73.251 11.5905C72.7287 10.9977 72.302 10.3337 71.985 9.6204C71.6331 8.85237 71.4536 8.0224 71.458 7.18401C71.4418 6.49833 71.5697 5.81651 71.8342 5.17892C72.0988 4.54133 72.4945 3.96093 72.998 3.47208C73.5301 2.96393 74.1669 2.56692 74.868 2.30624C75.5692 2.04555 76.3193 1.92686 77.071 1.95769C78.0021 1.91928 78.9305 2.07813 79.7897 2.42287C80.649 2.76761 81.4178 3.2897 82.041 3.95172C83.2897 5.30206 84.0762 6.98507 84.295 8.77483L85.218 9.05191L90.36 5.21387ZM115.998 14.8974C115.527 14.1093 114.845 13.4556 114.021 13.0037C113.206 12.5586 112.326 12.2312 111.411 12.032C110.429 11.8238 109.425 11.7222 108.419 11.7291C106.5 11.7033 104.592 12.0157 102.79 12.6511C101.244 13.1874 99.8278 14.0161 98.625 15.0875C97.5072 16.1221 96.5802 17.3296 95.883 18.659C95.1663 19.9963 94.6387 21.4187 94.314 22.8887C93.9937 24.3756 93.8348 25.89 93.84 27.408C93.834 28.6979 94.025 29.982 94.406 31.2184C94.776 32.4155 95.351 33.5458 96.106 34.5643C96.9021 35.6149 97.9699 36.4501 99.205 36.9883C100.623 37.6074 102.168 37.9141 103.726 37.8845C108.665 37.8845 113.305 35.8055 117.646 31.6483L117.119 30.9155L116.46 30.7645C113.244 33.1379 110.273 34.3245 107.549 34.3245C106.529 34.3402 105.521 34.1192 104.61 33.6805C103.784 33.2889 103.066 32.7187 102.511 32.0152C101.96 31.292 101.512 30.5023 101.179 29.6667C100.833 28.8323 100.581 27.9649 100.428 27.0793C100.288 26.2443 100.218 25.3997 100.217 24.5541C100.223 23.4792 100.32 22.4072 100.507 21.3476C100.714 20.1676 101.023 19.0067 101.43 17.8755C101.8 16.7699 102.442 15.7653 103.302 14.9461C103.681 14.5795 104.132 14.289 104.63 14.0917C105.129 13.8945 105.663 13.7945 106.202 13.7976C106.922 13.7597 107.64 13.9145 108.273 14.2446C108.906 14.5748 109.431 15.0672 109.787 15.6665C110.602 17.0697 111.003 18.6582 110.947 20.2622L111.87 20.6157L116.853 17.7885C116.812 16.7737 116.519 15.7826 115.998 14.8974ZM125.661 22.4091C125.795 21.4173 126.029 20.4409 126.36 19.4931C126.663 18.5711 127.093 17.693 127.638 16.8799C128.162 16.1267 128.861 15.5 129.682 15.0493C130.567 14.5613 131.574 14.3126 132.595 14.3298C133.703 14.3029 134.796 14.5786 135.745 15.1248C136.627 15.6496 137.336 16.4026 137.788 17.2965C138.265 18.2204 138.61 19.2007 138.815 20.2125C139.032 21.3017 139.139 22.4101 139.132 23.5203C139.132 24.5302 139.123 25.372 139.105 26.0446C139.077 26.8549 139.016 27.6638 138.921 28.4695C138.843 29.2625 138.698 30.047 138.486 30.8171C138.279 31.4954 138.01 32.1547 137.682 32.7872C137.38 33.4133 136.944 33.9721 136.403 34.4277C135.844 34.8638 135.211 35.2054 134.531 35.4376C133.707 35.7194 132.836 35.8563 131.961 35.8418C130.997 35.853 130.053 35.5794 129.258 35.0583C128.483 34.562 127.838 33.9011 127.374 33.1273C126.887 32.2945 126.506 31.4089 126.24 30.4893C125.96 29.5845 125.757 28.6595 125.633 27.7233C125.531 26.9148 125.478 26.1013 125.475 25.2869C125.474 24.3249 125.537 23.3638 125.661 22.4091ZM122.392 35.4634C124.307 37.1297 127.348 37.9629 131.514 37.9629C133.054 37.9724 134.59 37.8033 136.088 37.4574C137.497 37.1227 138.84 36.5729 140.066 35.8294C141.298 35.0867 142.375 34.1319 143.243 33.0136C144.192 31.7456 144.897 30.3263 145.326 28.8221C145.858 26.9979 146.115 25.1108 146.091 23.2174C146.142 21.6929 145.846 20.1761 145.222 18.7721C144.598 17.368 143.662 16.1104 142.479 15.0865C140.281 13.2024 137.091 12.2594 132.909 12.2594C128.726 12.2594 125.281 13.4967 122.574 15.9713C121.245 17.1714 120.196 18.6262 119.497 20.2405C118.797 21.8547 118.462 23.592 118.514 25.3385C118.514 29.8501 119.805 33.2248 122.389 35.4634H122.392ZM163.65 15.4658C165.056 15.4658 166.058 15.7353 166.656 16.2742C167.213 16.9239 167.565 17.7131 167.67 18.5481C167.891 19.5322 168.028 20.5336 168.079 21.5396C168.114 22.4234 168.132 23.5642 168.132 24.9611C168.131 26.7749 168.118 28.5887 168.093 30.4024C168.084 30.9489 168.088 31.5929 168.105 32.3343C168.11 32.8866 168.145 33.4388 168.211 33.9872C168.264 34.3503 168.334 34.7459 168.422 35.1739C168.483 35.5332 168.608 35.8781 168.791 36.1962C168.949 36.4494 169.143 36.6797 169.369 36.8794C170.16 37.5651 171.201 37.9273 172.268 37.8883C173.587 37.8883 175.098 37.2482 176.803 35.9698C178.226 34.8391 179.581 33.6334 180.863 32.3582L180.257 31.4983H179.624C178.593 32.2887 177.332 32.7561 176.013 32.8369C175.734 32.8522 175.454 32.8131 175.191 32.7219C174.928 32.6308 174.687 32.4895 174.483 32.3066C174.301 32.1692 174.145 32.0031 174.021 31.8155C173.876 31.4852 173.783 31.1362 173.745 30.7798C173.644 30.0559 173.6 29.3258 173.613 28.5956C173.613 28.0405 173.644 27.1434 173.705 25.907C173.754 25.028 173.785 24.1482 173.798 23.2681V21.7527C173.815 20.1198 173.811 18.9886 173.785 18.3561C173.732 17.4932 173.631 16.6336 173.481 15.7811C173.415 14.9774 173.134 14.2034 172.664 13.5339C172.2 13.0529 171.645 12.6592 171.029 12.3731C170.192 11.9862 169.269 11.7996 168.34 11.8294C165.247 11.8294 161.661 13.0419 157.584 15.4658L156.951 15.2385C156.917 14.31 156.601 13.4111 156.042 12.6511C155.523 12.0014 154.631 11.6784 153.366 11.6784C152.608 11.6876 151.856 11.8111 151.138 12.0444C150.303 12.3119 149.506 12.6769 148.764 13.1298C147.964 13.6104 147.27 14.0566 146.681 14.4684C146.092 14.8802 145.411 15.3808 144.638 15.9703L145.613 17.2076C145.792 17.0968 145.973 16.9876 146.154 16.8799C146.461 16.6946 146.729 16.5436 146.958 16.4251C147.186 16.3076 147.459 16.1691 147.775 16.0085C148.058 15.8614 148.354 15.7381 148.659 15.6397C148.892 15.5633 149.136 15.5203 149.383 15.5136C149.688 15.5069 149.989 15.5805 150.253 15.7286C150.521 15.8977 150.723 16.1461 150.831 16.4356C150.963 16.7414 151.077 17.0519 151.173 17.3691C151.281 17.7962 151.343 18.2319 151.358 18.6704C151.394 19.2437 151.415 19.7061 151.422 20.0587C151.43 20.4113 151.434 20.9415 151.435 21.6495V22.0795C151.435 23.7286 151.303 28.7781 151.04 37.2281L151.699 37.5816L157.631 35.9402C157.455 35.2169 157.323 32.9362 157.235 29.0992C157.148 25.3458 157.105 21.5916 157.107 17.8373C160.165 16.255 162.344 15.4639 163.645 15.4639L163.65 15.4658ZM189.223 24.0745C189.172 24.0891 189.119 24.0981 189.065 24.1012C188.802 24.1012 188.67 24.0085 188.669 23.8241C188.67 22.9862 188.736 22.1511 188.868 21.3237C189.016 20.4218 189.263 19.537 189.605 18.6848C189.936 17.822 190.388 17.006 190.95 16.2608C191.547 15.5025 192.322 14.8891 193.213 14.4701C194.104 14.0512 195.085 13.8385 196.078 13.8492C196.794 13.8112 197.509 13.9518 198.151 14.2573C198.794 14.5629 199.342 15.0228 199.742 15.592C200.573 16.7688 201.006 18.1614 200.981 19.581C200.977 19.841 200.891 20.0937 200.733 20.3057C200.575 20.5176 200.354 20.6787 200.098 20.7676C198.655 21.3232 197.181 21.8039 195.683 22.2075C193.576 22.7998 191.475 23.4145 189.382 24.0515C189.329 24.0543 189.276 24.0623 189.224 24.0754L189.223 24.0745ZM204.883 31.9531C201.718 33.7885 198.985 34.7057 196.684 34.7048C195.126 34.7369 193.596 34.3048 192.307 33.4684C191.108 32.6994 190.155 31.6292 189.553 30.3756C188.959 29.1179 188.658 27.7521 188.669 26.3723C200.164 22.9566 205.964 21.2482 206.07 21.2482C206.526 21.1586 206.934 20.9157 207.22 20.5636C207.505 20.2115 207.649 19.7734 207.625 19.3287C207.656 18.0892 207.352 16.863 206.742 15.7687C206.185 14.79 205.36 13.9741 204.356 13.4078C203.343 12.8398 202.245 12.4226 201.1 12.1705C199.858 11.9018 198.588 11.7703 197.314 11.7788C195.031 11.7451 192.766 12.1801 190.674 13.0543C188.829 13.8158 187.198 14.984 185.916 16.4633C184.707 17.8935 183.774 19.5179 183.161 21.2607C182.525 23.0536 182.204 24.9349 182.212 26.8281C182.212 30.7167 183.31 33.628 185.507 35.5647C187.493 37.3323 190.296 38.2151 193.917 38.2151C195.993 38.1947 198.036 37.7198 199.889 36.8268C202.121 35.7645 204.259 34.5315 206.282 33.1398L205.705 32.1566L204.883 31.9531Z" fill="#9C9C9C"/>
</g>
</svg>
