<svg width="148" height="35" viewBox="0 0 148 35" fill="none" xmlns="http://www.w3.org/2000/svg">
<path d="M48.624 33.9376V0H39.648L20.88 26.187L17.712 22.3805C23.376 21.555 26.544 16.7853 26.544 11.6947C26.544 6.83338 23.76 2.7517 20.016 1.1924C18.144 0.412755 15.36 0 11.664 0H0V33.9376H8.688V22.9767H8.784L16.992 33.9376H26.16L29.28 29.0304H39.552V33.9376H48.624ZM8.688 17.0605V7.61303H12.144C15.552 7.61303 17.856 9.26404 17.856 12.1992C17.856 15.3178 15.696 17.0605 12.096 17.0605H8.688ZM39.552 22.1512H33.6L39.456 12.7495H39.552V22.1512ZM85.03 33.9376V0H76.342L76.726 21.4632L62.902 0H55.078V33.9376H63.766L63.526 13.2081L77.158 33.9376H85.03ZM111.228 33.9376V26.3246H100.188V20.5001H110.892V12.8871H100.188V7.61303H111.228V0H91.5V33.9376H111.228ZM147.29 33.9376L134.762 16.9229L146.522 0H137.018L126.986 15.2719H126.89V0H117.818V33.9376H126.89V19.2619H126.986L136.682 33.9376H147.29Z" fill="#9C9C9C"/>
</svg>
