<svg width="200" height="47" viewBox="0 0 200 47" fill="none" xmlns="http://www.w3.org/2000/svg">
<g clip-path="url(#clip0_20_46)">
<path d="M54.381 42.0532C51.061 42.0532 48.516 41.5105 46.745 40.4251C45.005 39.3092 44.136 37.6801 44.136 35.539C44.136 34.4536 44.516 33.5631 45.274 32.8694C46.065 32.1462 47.077 31.784 48.31 31.784C49.037 31.8146 49.59 31.9943 49.97 32.3267C50.35 32.6287 50.54 32.9153 50.54 33.1867C50.54 33.2163 50.381 33.3223 50.065 33.5029C49.749 33.6844 49.465 33.9558 49.211 34.3169C48.958 34.68 48.831 35.1769 48.831 35.8103C48.831 37.2282 49.275 38.3289 50.16 39.1133C51.077 39.8672 52.484 40.2436 54.381 40.2436C55.678 40.2436 56.816 40.0028 57.797 39.5203C58.777 39.0378 59.52 38.4044 60.026 37.6199C60.563 36.8059 60.832 35.9613 60.832 35.0861C60.832 34.0007 60.5 33.0663 59.836 32.2818C59.191 31.4873 58.3845 30.8256 57.465 30.3365C56.515 29.7938 55.219 29.1747 53.575 28.4811C51.678 27.667 50.145 26.9285 48.975 26.2644C47.7993 25.5967 46.7812 24.7033 45.985 23.6408C45.164 22.5248 44.753 21.1528 44.753 19.5237C44.753 16.9001 45.685 14.9395 47.551 13.6429C49.449 12.3454 51.931 11.6976 54.998 11.6976C57.401 11.6976 59.488 12.1801 61.259 13.1451C63.062 14.1101 63.963 15.528 63.963 17.3969C63.963 18.4832 63.567 19.388 62.777 20.1123C62.018 20.8059 61.022 21.1528 59.789 21.1528C59.061 21.1222 58.508 20.9559 58.129 20.655C57.749 20.3234 57.559 20.0215 57.559 19.7502C57.559 19.7196 57.765 19.6145 58.176 19.4329C58.619 19.2524 58.998 18.981 59.314 18.6189C59.662 18.2568 59.836 17.759 59.836 17.1265C59.836 16.0105 59.378 15.1353 58.461 14.5019C57.575 13.8684 56.437 13.5522 55.045 13.5522C53.117 13.5522 51.646 13.9897 50.635 14.864C49.654 15.7086 49.164 16.7644 49.164 18.0313C49.164 19.0861 49.464 19.9766 50.065 20.6999C50.665 21.3935 51.63 22.0872 52.958 22.7808C54.1096 23.3594 55.2802 23.9026 56.468 24.4099C58.492 25.2841 60.089 26.0838 61.259 26.8081C62.4637 27.5349 63.4842 28.5084 64.247 29.6582C65.069 30.8334 65.481 32.2971 65.481 34.0456C65.481 35.5543 64.975 36.9263 63.963 38.1636C62.983 39.3694 61.638 40.3191 59.931 41.0127C58.255 41.7064 56.405 42.0532 54.381 42.0532ZM78.394 41.6921C76.244 41.6921 74.536 41.0729 73.271 39.8366C72.006 38.6002 71.374 36.9712 71.374 34.9504V26.5807C71.374 25.7972 71.342 25.2239 71.279 24.8618C71.248 24.5007 71.058 24.1834 70.709 23.9121C70.362 23.6408 69.777 23.5051 68.955 23.5051C68.575 23.5051 68.291 23.4602 68.101 23.3694C67.911 23.249 67.817 22.992 67.817 22.6003C67.817 22.4187 67.88 22.2534 68.007 22.1034C68.133 21.9219 68.323 21.8168 68.576 21.7862C70.568 21.5139 72.276 21.1222 73.698 20.6091C74.141 20.4591 74.504 20.3683 74.789 20.3378H74.931C75.437 20.3378 75.691 20.6244 75.691 21.1977V34.9055C75.691 36.2928 76.149 37.3639 77.066 38.1177C77.9549 38.8318 79.0827 39.217 80.244 39.2031C81.73 39.2031 82.994 38.8563 84.038 38.1626C85.082 37.469 85.778 36.7753 86.125 36.0817V26.5816C86.125 25.7972 86.094 25.2249 86.031 24.8618C85.999 24.5007 85.809 24.1834 85.461 23.9121C85.113 23.6408 84.528 23.5051 83.706 23.5051C83.326 23.5051 83.042 23.4602 82.853 23.3694C82.663 23.249 82.568 22.992 82.568 22.6003C82.568 22.4187 82.631 22.2534 82.758 22.1034C82.884 21.9219 83.074 21.8168 83.327 21.7862C85.319 21.5139 87.027 21.1222 88.45 20.6091C88.892 20.4591 89.256 20.3683 89.54 20.3378H89.683C90.189 20.3378 90.442 20.6244 90.442 21.1977V36.8518C90.442 38.6318 91.691 39.5213 94.189 39.5213C94.726 39.5213 94.995 39.8079 94.995 40.3812C94.995 40.8025 94.726 41.0596 94.189 41.1494L86.552 41.6472C86.331 41.6472 86.204 41.5717 86.172 41.4217C86.142 41.3003 86.125 41.0749 86.125 40.7433V38.2085H86.031C85.305 38.86 84.5614 39.4934 83.801 40.1079C83.232 40.5302 82.489 40.8924 81.571 41.1943C80.686 41.5258 79.627 41.6911 78.394 41.6911V41.6921ZM97.59 41.285C97.4795 41.2846 97.3705 41.2598 97.2717 41.2125C97.1728 41.1653 97.0867 41.0969 97.02 41.0127C96.894 40.8322 96.83 40.621 96.83 40.3802C96.862 39.9885 96.957 39.7611 97.115 39.7019C97.274 39.6111 97.558 39.5652 97.969 39.5652C98.791 39.5652 99.376 39.4296 99.724 39.1582C100.072 38.8869 100.262 38.5697 100.293 38.2085C100.357 37.8454 100.388 37.2731 100.388 36.4887V26.1287C100.388 25.3453 100.357 24.772 100.293 24.4089C100.262 24.0478 100.072 23.7306 99.724 23.4602C99.376 23.1888 98.791 23.0522 97.969 23.0522C97.589 23.0522 97.305 23.0073 97.116 22.9165C96.926 22.7961 96.831 22.5401 96.831 22.1474C96.831 21.9668 96.894 21.8006 97.021 21.6505C97.147 21.469 97.337 21.3639 97.59 21.3333C99.645 21.0314 101.337 20.6397 102.665 20.1572C103.203 20.0062 103.566 19.9155 103.756 19.8858H103.898C104.404 19.8858 104.657 20.1725 104.657 20.7457V23.55H104.799C105.906 22.4942 107.029 21.6649 108.167 21.062C109.306 20.4285 110.333 20.1123 111.25 20.1123C112.294 20.1123 113.116 20.4887 113.717 21.2426C114.349 21.9668 114.665 22.8114 114.665 23.7764C114.665 24.621 114.397 25.3749 113.859 26.038C113.321 26.702 112.578 27.0336 111.63 27.0336C111.217 27.0405 110.809 26.9471 110.444 26.7622C110.128 26.5807 109.954 26.4307 109.922 26.3103C109.954 26.2501 110.112 26.0686 110.396 25.7666C110.681 25.4351 110.823 25.0586 110.823 24.6363C110.823 24.0927 110.665 23.656 110.349 23.3245C110.064 22.992 109.669 22.8267 109.163 22.8267C108.626 22.8267 107.946 23.0828 107.124 23.5958C106.301 24.0783 105.495 24.6965 104.705 25.4504V36.4887C104.705 37.2731 104.736 37.8454 104.799 38.2085C104.863 38.5697 105.068 38.8869 105.416 39.1582C105.764 39.4296 106.349 39.5652 107.171 39.5652H107.456C107.709 39.5652 107.898 39.6111 108.025 39.7009C108.151 39.7917 108.23 40.0181 108.262 40.3793C108.262 40.621 108.199 40.8322 108.072 41.0127C107.946 41.1943 107.756 41.285 107.503 41.285C105.844 41.1989 104.184 41.1534 102.523 41.1484C101.1 41.1484 99.456 41.1952 97.59 41.285ZM171.257 41.6921C169.107 41.6921 167.194 41.2086 165.518 40.2436C163.842 39.249 162.53 37.9515 161.581 36.353C160.677 34.7714 160.204 32.9977 160.206 31.1955C160.206 28.9339 160.759 26.9734 161.866 25.3147C162.973 23.6255 164.38 22.3432 166.087 21.469C167.795 20.5642 169.518 20.1123 171.257 20.1123C173.408 20.1123 175.321 20.6091 176.997 21.6047C178.641 22.5379 179.986 23.8834 180.886 25.4953C181.823 27.0499 182.313 28.8131 182.309 30.6069C182.309 32.8694 181.74 34.8453 180.602 36.5345C179.495 38.1932 178.088 39.4745 176.38 40.3793C174.673 41.2545 172.965 41.6921 171.257 41.6921ZM171.257 40.0181C173.408 40.0181 174.973 39.1429 175.953 37.3935C176.965 35.645 177.471 33.3825 177.471 30.6079C177.471 28.0138 176.949 25.9033 175.906 24.2733C174.894 22.6156 173.344 21.7862 171.257 21.7862C169.076 21.7862 167.495 22.6461 166.514 24.365C165.534 26.0838 165.044 28.3301 165.044 31.1057C165.044 33.6988 165.55 35.8409 166.562 37.5292C167.574 39.1888 169.139 40.0181 171.257 40.0181ZM194.261 41.9176C192.711 41.9176 191.383 41.3749 190.276 40.2895C189.17 39.2031 188.616 37.6505 188.616 35.6297V22.3289L185.865 22.4197C185.773 22.4204 185.682 22.4003 185.6 22.3609C185.517 22.3215 185.446 22.2641 185.391 22.1932C185.267 22.02 185.2 21.8148 185.201 21.6047C185.201 21.3333 185.249 21.1079 185.343 20.9263C185.47 20.7152 185.644 20.5948 185.865 20.5642C186.972 20.354 187.826 20.0215 188.427 19.5696C189.059 19.0861 189.518 18.574 189.802 18.0313C190.087 17.458 190.435 16.5981 190.846 15.4516C191.004 15.0599 191.352 14.864 191.889 14.864C192.11 14.864 192.332 14.9242 192.553 15.0455C192.774 15.1353 192.885 15.2863 192.885 15.4974L192.553 20.655L198.103 20.3378H198.198C198.609 20.3378 198.814 20.6244 198.814 21.1977C198.814 21.5292 198.751 21.8464 198.624 22.1474C198.53 22.4197 198.403 22.5554 198.245 22.5554L192.933 22.4197V36.1724C192.933 37.168 193.138 37.9973 193.549 38.6604C193.992 39.3245 194.703 39.656 195.684 39.656C196.664 39.656 197.534 39.4898 198.292 39.1582C198.704 39.0073 198.956 38.9318 199.051 38.9318C199.273 38.9318 199.447 39.0225 199.573 39.2031C199.7 39.3541 199.826 39.5662 199.953 39.8366C199.987 39.9077 200.003 39.9851 200 40.063C200 40.1834 199.905 40.3191 199.715 40.47C198.798 41.0433 197.929 41.4207 197.107 41.6013C196.316 41.8115 195.367 41.9176 194.261 41.9176ZM117.597 41.0127C117.723 41.1943 117.913 41.2841 118.166 41.2841C119.809 41.1979 121.454 41.1527 123.099 41.1484C125.218 41.1484 127.194 41.1943 129.028 41.2841C129.132 41.2864 129.235 41.2625 129.327 41.2149C129.418 41.1673 129.495 41.0976 129.55 41.0127C129.676 40.8312 129.739 40.621 129.739 40.3793C129.708 40.0181 129.629 39.7917 129.502 39.7009C129.407 39.6111 129.218 39.5652 128.933 39.5652H128.648C127.605 39.5652 126.862 39.4898 126.419 39.3388C125.976 39.1888 125.676 38.9165 125.518 38.5248C125.36 38.1024 125.281 37.4241 125.281 36.4896V22.4178H130.309C130.419 22.4173 130.528 22.3925 130.627 22.3455C130.725 22.2984 130.811 22.2303 130.878 22.1464C131.036 21.9658 131.115 21.7547 131.115 21.513C131.083 21.1518 130.988 20.9254 130.83 20.8346C130.704 20.7142 130.498 20.6531 130.214 20.6531H125.281V17.9396C125.281 16.4921 125.344 15.2251 125.47 14.1388C125.588 13.0482 125.961 11.9968 126.561 11.0622C127.162 10.1278 128.095 9.6606 129.36 9.6606C129.505 9.6606 129.646 9.66825 129.782 9.68449C129.764 9.17765 129.799 8.67037 129.886 8.1701C129.821 8.1684 129.757 8.16745 129.692 8.16724C126.909 8.22743 124.743 9.23734 123.194 11.1989C121.676 13.1289 120.917 15.6475 120.917 18.7536V20.654H118.071C117.66 20.654 117.375 20.6989 117.217 20.7897C117.059 20.8499 116.964 21.0916 116.933 21.513C116.933 21.7547 116.996 21.9658 117.122 22.1464C117.281 22.328 117.486 22.4187 117.739 22.4187H120.917V36.4887C120.917 37.3037 120.885 37.8913 120.822 38.2534C120.791 38.5849 120.601 38.8869 120.253 39.1582C119.905 39.4296 119.32 39.5652 118.498 39.5652C118.087 39.5652 117.802 39.6111 117.644 39.7009C117.518 39.7611 117.439 39.9875 117.407 40.3793C117.407 40.621 117.47 40.8322 117.597 41.0127Z" fill="#9C9C9C"/>
<path fill-rule="evenodd" clip-rule="evenodd" d="M142.952 9.42549C142.951 10.0861 142.814 10.7401 142.549 11.3502C142.284 11.9603 141.896 12.5145 141.406 12.9812C140.917 13.4478 140.336 13.8178 139.697 14.0701C139.058 14.3223 138.373 14.4518 137.682 14.4512C136.286 14.4522 134.946 13.9233 133.958 12.9809C132.97 12.0384 132.414 10.7596 132.412 9.42549C132.412 8.76476 132.549 8.11059 132.814 7.50035C133.079 6.8901 133.468 6.33573 133.957 5.86887C134.447 5.40202 135.027 5.03183 135.666 4.77944C136.306 4.52706 136.99 4.39741 137.682 4.39791C138.374 4.39729 139.058 4.52684 139.698 4.77919C140.337 5.03153 140.918 5.40171 141.407 5.86859C141.896 6.33547 142.285 6.8899 142.55 7.5002C142.815 8.1105 142.952 8.76472 142.952 9.42549ZM137.682 11.9383C138.028 11.9387 138.37 11.874 138.69 11.7479C139.009 11.6218 139.3 11.4368 139.544 11.2035C139.789 10.9701 139.983 10.693 140.116 10.3879C140.248 10.0828 140.317 9.75581 140.317 9.42549C140.317 9.09509 140.249 8.76795 140.116 8.46277C139.984 8.15759 139.789 7.88035 139.545 7.6469C139.3 7.41345 139.009 7.22836 138.69 7.10221C138.37 6.97606 138.028 6.91133 137.682 6.9117C136.984 6.91145 136.314 7.17596 135.82 7.64712C135.326 8.11829 135.048 8.75757 135.047 9.42454C135.048 10.0917 135.326 10.7312 135.82 11.2026C136.314 11.6739 136.984 11.9386 137.682 11.9383ZM135.372 16.6382V40.878C135.372 41.1483 135.452 41.3595 135.61 41.5105C135.768 41.692 135.989 41.7818 136.274 41.7818C136.558 41.7818 136.795 41.6614 136.985 41.4207C137.175 41.2095 137.349 40.8923 137.507 40.47C137.665 40.0477 137.807 39.7161 137.934 39.4744H138.171C140.226 40.9525 142.661 41.691 145.475 41.691C147.373 41.691 149.159 41.2085 150.835 40.2435C152.511 39.2785 153.839 37.9667 154.82 36.3071C155.831 34.6188 156.337 32.7643 156.337 30.7435C156.337 28.6921 155.895 26.8682 155.009 25.2688C154.156 23.6407 152.97 22.3738 151.452 21.4689C149.934 20.5641 148.242 20.1122 146.377 20.1122C145.238 20.1122 144.084 20.3377 142.914 20.7906C141.776 21.2129 140.748 21.8607 139.831 22.7359H139.689V16.7204C138.269 17.0725 136.776 17.044 135.372 16.6382ZM149.697 37.6648C148.527 39.3244 146.977 40.1537 145.049 40.1537C144.037 40.1537 143.136 39.9426 142.345 39.5203C141.586 39.0979 140.969 38.6002 140.495 38.0269C140.052 37.424 139.784 36.8804 139.689 36.3988V24.4557C141.048 23.0674 142.724 22.3738 144.717 22.3738C146.962 22.3738 148.653 23.2184 149.792 24.9076C150.93 26.5663 151.499 28.5718 151.499 30.9241C151.499 33.7293 150.899 35.9765 149.697 37.6648ZM12.7 0.350627C13.0354 0.122248 13.4371 -0.000488281 13.849 -0.000488281C14.2609 -0.000488281 14.6625 0.122248 14.998 0.350627C23.558 6.18269 27.438 13.1737 27.683 23.205C27.796 27.9947 27.313 32.3802 25.842 36.1685C24.332 39.9598 21.649 43.4615 17.699 46.4196C17.453 46.6022 17.1655 46.7267 16.8596 46.7832C16.5538 46.8396 16.2384 46.8263 15.939 46.7444C14.729 46.4129 14.523 45.0447 13.849 44.1924C13.175 45.0447 12.971 46.4119 11.759 46.7435C11.4597 46.8252 11.1444 46.8384 10.8388 46.782C10.5332 46.7255 10.2458 46.6011 9.99997 46.4186C6.04997 43.4615 3.36597 39.9598 1.85697 36.1685C0.38697 32.3802 -0.0970298 27.9947 0.0159702 23.205C0.25997 13.1737 4.13997 6.18174 12.7 0.350627ZM17.126 42.099C19.598 39.9301 21.088 37.5654 22.14 34.8452C23.465 31.5203 23.847 27.8456 23.732 23.2929C23.542 15.4706 21.622 10.3809 15.809 5.65529V19.4787C18.082 20.0367 19.102 22.1636 19.102 24.5044C19.102 26.8472 18.082 28.974 15.809 29.532V40.8416C15.809 40.8416 16.865 41.7713 17.126 42.099ZM10.538 42.099C8.06597 39.9301 6.61097 37.5654 5.55797 34.8452C4.23397 31.5203 3.85197 27.8456 3.96797 23.2929C4.15797 15.4869 6.06697 10.3752 11.856 5.65529V19.4787C9.58297 20.0367 8.56197 22.1636 8.56197 24.5044C8.56197 26.8472 9.58197 28.974 11.856 29.532V40.8416C11.856 40.8416 10.79 41.7828 10.538 42.099ZM13.832 21.9916C13.1338 21.9911 12.4641 22.2555 11.9699 22.7267C11.4758 23.1979 11.1978 23.8374 11.197 24.5044C11.197 25.8936 12.377 27.0182 13.832 27.0182C14.5301 27.0187 15.1999 26.7543 15.694 26.2831C16.1881 25.8118 16.4662 25.1724 16.467 24.5054C16.467 23.1171 15.287 21.9916 13.832 21.9916Z" fill="#9C9C9C"/>
</g>
<defs>
<clipPath id="clip0_20_46">
<rect width="200" height="46.8171" fill="white"/>
</clipPath>
</defs>
</svg>
