<svg width="196" height="33" viewBox="0 0 196 33" fill="none" xmlns="http://www.w3.org/2000/svg">
<path d="M21.644 31.4868C20.4706 31.517 19.3082 31.2643 18.264 30.7521C17.2254 30.2435 16.3395 29.4905 15.69 28.5641C13.6449 30.3589 10.9953 31.3956 8.22 31.4868C3.233 31.4868 0.53 28.1772 1.443 23.4324C2.137 19.8647 5.242 16.2894 6.11 13.4193C4.43 12.4562 1.936 11.7855 0.767 13.7537L0 13.3151C0.612 11.1577 2.091 9.72264 4.228 9.72264C6.365 9.72264 7.945 10.917 9.982 9.81723H11.607C10.74 14.1148 8.548 17.5526 7.379 23.57C6.667 27.258 7.991 28.9339 10.229 28.9339C11.8822 28.7396 13.403 27.9714 14.502 26.7755C13.6095 24.677 13.1596 22.4308 13.178 20.1657C13.178 14.9394 15.726 9.43027 20 9.43027C22.192 9.43027 23.817 10.8654 23.817 14.2696C23.817 17.6729 21.626 22.9422 18.831 26.251C18.982 27.0392 19.421 27.7529 20.071 28.2698C20.721 28.7858 21.542 29.0724 22.393 29.0801C26.466 29.0801 29.315 23.3282 29.315 18.0083C29.315 12.6884 26.868 12.9282 27.078 11.1319C27.0969 10.9075 27.162 10.6888 27.2696 10.4884C27.3772 10.288 27.5252 10.11 27.705 9.96437C28.069 9.66818 28.543 9.52008 29.023 9.55066C30.293 9.55066 31.963 11.0631 31.963 17.2009C31.963 25.0223 27.544 31.4868 21.644 31.4868ZM20.722 12.1294C19.452 12.1294 18.228 16.5388 18.073 21.0944C18.0137 22.0686 18.0321 23.0456 18.128 24.0171C20.0432 21.0372 21.2119 17.6748 21.543 14.1922C21.534 12.6444 21.233 12.1285 20.721 12.1285L20.722 12.1294ZM40.329 31.2891C39.7964 31.3409 39.2584 31.2819 38.752 31.1161C38.2475 30.9514 37.7868 30.6834 37.402 30.3307C37.0197 29.9801 36.7233 29.553 36.534 29.0801C36.3451 28.6091 36.2686 28.1038 36.31 27.601C36.31 25.4952 39.215 14.9996 39.215 13.2721C39.215 12.4562 39.014 11.9746 38.247 11.9746C37.3912 12.1059 36.5942 12.4731 35.954 13.0314V11.5447C37.2835 10.3924 38.9997 9.73104 40.794 9.67964C41.3299 9.6341 41.8698 9.69928 42.377 9.87074C42.883 10.0427 43.343 10.315 43.726 10.6714C44.108 11.0268 44.404 11.4568 44.592 11.9326C44.779 12.4065 44.855 12.9138 44.812 13.4183C44.812 15.5241 41.909 25.9768 41.909 27.6956C41.909 28.5125 42.109 28.9941 42.877 28.9941C43.7212 28.86 44.5126 28.5126 45.169 27.988V29.4231C43.8445 30.5832 42.1253 31.246 40.329 31.2891ZM43.89 0.954476C44.288 0.943011 44.684 1.0118 45.051 1.15894C45.417 1.30608 45.746 1.52584 46.012 1.80387C46.279 2.07979 46.4787 2.40885 46.5967 2.76737C46.7146 3.12589 46.7478 3.50493 46.694 3.8772C46.5958 4.67204 46.1972 5.40526 45.573 5.93906C44.9435 6.47774 44.1329 6.78314 43.288 6.79992C42.8905 6.81195 42.4949 6.74222 42.128 6.59545C41.7623 6.44948 41.4341 6.22945 41.166 5.95052C40.899 5.67461 40.6993 5.34554 40.5813 4.98703C40.4634 4.62851 40.4302 4.24947 40.484 3.8772C40.5823 3.08238 40.9809 2.34919 41.605 1.81534C42.2347 1.27707 43.0453 0.971073 43.89 0.954476ZM55.196 26.7851C54.941 28.0826 55.096 28.9855 56.064 28.9855C56.9112 28.8608 57.7051 28.5124 58.356 27.9794L58.447 29.4231C57.1176 30.5757 55.4014 31.2374 53.607 31.2891C50.447 31.2891 49.224 29.1317 49.69 26.4497L52.795 9.81723C53.827 4.26415 53.47 3.53324 50.31 3.53324L50.511 2.19274L60.036 1.00607L55.196 26.7851ZM81.982 26.7411C81.726 28.0396 81.826 28.9941 82.849 28.9941C83.6981 28.8425 84.4896 28.4774 85.142 27.9364V29.4231C83.8212 30.5887 82.0996 31.2524 80.302 31.2891C79.3927 31.352 78.4912 31.0914 77.771 30.5572C77.0565 30.0283 76.5772 29.2612 76.429 28.4093C75.6625 29.3634 74.6786 30.1381 73.552 30.6747C72.4197 31.2149 71.1745 31.5042 69.909 31.5212C63.854 31.5212 61.306 26.4927 62.475 20.4495C63.644 14.4072 69.095 9.47327 75.26 9.47327C76.7175 9.4441 78.1591 9.76611 79.452 10.4096L79.607 9.64525C80.813 3.73101 80.256 3.53324 77.096 3.53324L77.251 2.19274L86.821 1.00607L81.981 26.7421L81.982 26.7411ZM75.415 11.6393C71.899 11.6393 69.562 15.5671 68.639 20.4065C67.671 25.4866 68.283 29.0027 71.589 29.0027C73.826 29.0027 76.374 26.423 77.141 22.4865L79.023 12.5164C77.9348 11.8959 76.6813 11.5911 75.415 11.6393ZM98.073 31.5289C90.995 31.5289 89.059 26.7325 89.927 22.1339L92.237 9.81723C93.306 4.25651 92.95 3.49024 89.79 3.49024L89.99 2.14974L99.543 1.00607L97.607 11.4501C99.1008 10.2309 100.986 9.53636 102.95 9.48187C109.114 9.48187 112.009 14.4158 110.895 20.4581C109.781 26.5013 104.11 31.5289 98.073 31.5289ZM101.379 11.7597C100.352 11.7788 99.3576 12.1042 98.534 12.6903C97.7166 13.2717 97.1139 14.0865 96.813 15.0168L95.388 22.7531C94.52 27.3516 96.256 29.2253 98.448 29.2253C101.653 29.2253 103.644 25.8736 104.712 20.3635C105.662 15.4295 104.795 11.7855 101.37 11.7855L101.379 11.7597ZM120.548 23.2432C120.548 26.9312 122.429 28.8995 126.027 28.8995C127.854 28.8995 130.511 27.7052 132.192 26.1229L132.904 27.6526C131.693 28.8594 130.242 29.8234 128.637 30.4884C127.025 31.1561 125.291 31.5126 123.534 31.5375C118.192 31.5375 114.575 27.7988 114.575 22.7187C114.575 15.1974 121.196 9.49047 127.562 9.49047C131.434 9.49047 133.616 11.5017 133.616 13.8483C133.571 17.4924 129.9 21.5846 120.548 23.2432ZM127.114 11.6909C124.21 11.6909 121.416 15.6703 120.648 21.3696C126.502 20.0281 128.995 16.2894 129.05 13.8913C129.041 12.5508 128.374 11.6909 127.105 11.6909H127.114ZM154.393 31.2891C153.484 31.352 152.582 31.0913 151.862 30.5572C151.148 30.0282 150.669 29.2611 150.521 28.4093C149.783 29.3629 148.822 30.1392 147.715 30.6766C146.603 31.2174 145.376 31.5061 144.128 31.5203C138.174 31.5203 135.626 26.4927 136.822 20.4495C138.018 14.4072 143.379 9.48091 149.562 9.48091C150.872 9.47458 152.17 9.72056 153.379 10.2042H159.187L156.073 26.7411C155.817 28.0396 155.918 28.9941 156.941 28.9941C157.79 28.8422 158.581 28.4772 159.233 27.9364V29.4231C157.912 30.5886 156.191 31.2523 154.393 31.2891ZM149.708 11.6393C146.292 11.6393 143.9 15.5671 142.986 20.4065C142.018 25.4866 142.685 29.0027 145.726 29.0027C148.064 29.0027 150.566 26.3207 151.279 22.4865L153.16 12.5164C152.133 11.8958 150.931 11.5898 149.717 11.6393H149.708ZM177.005 15.1372C175.626 15.1372 175.269 14.132 174.868 13.0744C174.731 12.5397 174.402 12.0678 173.939 11.7406C173.472 11.4106 172.9 11.2442 172.32 11.2695C171.566 11.2314 170.824 11.4607 170.237 11.9135C169.654 12.3617 169.27 13.0035 169.16 13.7107C169.005 15.0091 170.027 16.1089 171.963 17.6901L174.557 19.7014C175.521 20.3872 176.269 21.3125 176.721 22.3766C177.17 23.4372 177.303 24.5933 177.105 25.7188C176.447 29.3113 173.288 31.5203 169.059 31.5203C163.963 31.5203 160.712 28.6921 161.068 26.7755C161.151 26.272 161.421 25.8105 161.831 25.478C162.241 25.1436 162.764 24.9582 163.306 24.9535C164.63 24.9535 165.132 25.908 165.543 27.1539C165.807 27.8705 166.314 28.4839 166.986 28.9004C167.66 29.3174 168.459 29.5129 169.26 29.4575C170.052 29.4933 170.829 29.2491 171.444 28.7714C172.053 28.2979 172.454 27.6225 172.566 26.8797C172.767 25.1598 171.653 24.1031 169.562 22.3231L167.014 20.2173C166.118 19.574 165.418 18.7142 164.986 17.7264C164.556 16.7436 164.411 15.6684 164.566 14.6136C165.023 12.31 167.306 9.45607 172.557 9.45607C176.63 9.45607 179.178 11.6135 178.95 13.3409C178.924 13.8174 178.71 14.2666 178.35 14.5973C177.99 14.9298 177.509 15.1228 177.005 15.1372ZM195.644 12.1294H190.703L188.311 24.8675C187.799 27.5064 188.21 28.7017 189.735 28.7017C190.548 28.7017 191.826 28.2717 193.653 26.5013L193.753 28.3663C192.923 29.2909 191.895 30.0339 190.738 30.5448C189.576 31.0585 188.312 31.3295 187.032 31.3397C183.571 31.3397 181.836 29.0371 182.658 24.7729L185.05 12.1294H181.187L181.489 10.1612H185.388L186.411 4.46193H192.11L191.041 10.1602H195.982L195.644 12.1294Z" fill="#9C9C9C"/>
</svg>
