<svg xmlns="http://www.w3.org/2000/svg" width="140" height="37" fill="none"><path fill="#9C9C9C" d="M11.394 21.724v4.86c0 2.43-1.12 3.305-2.9 3.305-1.78 0-2.899-.876-2.899-3.305V8.213c0-2.43 1.12-3.355 2.9-3.355 1.78 0 2.899.924 2.899 3.354v3.645h5.29V8.553C16.684 3.11 13.835 0 8.342 0 2.848 0 0 3.11 0 8.553v17.69c0 5.444 2.848 8.555 8.342 8.555 5.493 0 8.342-3.112 8.342-8.555v-4.519h-5.29ZM32.503.39l5.697 34.02h-5.646l-.967-6.173h-6.866l-.967 6.173h-5.137L24.314.389h8.189Zm-4.425 6.026L25.433 23.62h5.391L28.18 6.414H28.078ZM58.19 34.409h-5.697c-.305-.876-.509-1.41-.509-4.18v-5.346c0-3.159-1.119-4.325-3.662-4.325h-1.933v13.85h-5.595V.389h8.444c5.798 0 8.29 2.577 8.29 7.826v2.672c0 3.5-1.17 5.735-3.662 6.853 2.798 1.214 3.713 3.741 3.713 7.29v5.248c0 1.653.052 2.868.611 4.132Zm-9.105-29.16h-2.696v10.449h2.187c2.086 0 3.357-.874 3.357-3.596V8.748c0-2.43-.864-3.5-2.848-3.5ZM75.242.388l5.697 34.02h-5.646l-.966-6.173H67.46l-.966 6.173h-5.138L67.053.389h8.189Zm-4.425 6.026L68.172 23.62h5.392L70.919 6.414h-.102ZM86.115.389h-5.646l5.493 34.02h8.342L99.797.389H94.66l-4.222 27.749h-.102L86.115.388Zm27.098 0 5.697 34.02h-5.646l-.966-6.173h-6.867l-.967 6.173h-5.137l5.697-34.02h8.189Zm-4.425 6.026-2.645 17.205h5.392L108.89 6.414h-.102Zm25.464 27.994H140V.389h-4.985V20.75h-.102L129.267.39h-7.019v34.02h5.036V9.768h.101l6.867 24.64Z"/></svg>