<svg xmlns="http://www.w3.org/2000/svg" width="152" height="38" fill="none"><path fill="#9C9C9C" fill-rule="evenodd" d="M23.024 16.1h2.717c2.808 0 4.325 3.145 2.496 5.183l-2.66 2.962c.288 1.756 1.259 3.345 2.719 4.447a7.648 7.648 0 0 0 5.161 1.504c1.857-.136 3.592-.936 4.86-2.24a6.89 6.89 0 0 0 1.975-4.793c0-.31.063-.616.187-.902a2.35 2.35 0 0 1 .535-.764c.229-.219.5-.392.8-.51.3-.118.62-.179.944-.178.654 0 1.28.248 1.743.69.463.44.723 1.04.724 1.664 0 2.47-.815 4.879-2.328 6.882a12.208 12.208 0 0 1-4.336 3.567c-1.717.849-3.62 1.3-5.553 1.317-1.934.018-3.844-.399-5.578-1.216a12.24 12.24 0 0 1-4.406-3.488 12.238 12.238 0 0 1-4.406 3.488 12.826 12.826 0 0 1-5.578 1.216 12.813 12.813 0 0 1-5.553-1.317 12.208 12.208 0 0 1-4.336-3.567 11.41 11.41 0 0 1-2.329-6.882c0-.31.063-.616.187-.902.124-.286.306-.546.535-.764.23-.219.501-.392.8-.51.3-.118.621-.179.945-.178.654 0 1.28.248 1.743.69.463.44.723 1.04.724 1.664a6.888 6.888 0 0 0 1.966 4.805 7.473 7.473 0 0 0 3.504 2.024 7.736 7.736 0 0 0 4.094-.065 7.444 7.444 0 0 0 3.432-2.133 6.938 6.938 0 0 0 1.72-3.55l-2.662-2.962c-1.828-2.037-.312-5.182 2.5-5.182h2.714Z" clip-rule="evenodd"/><path fill="#9C9C9C" d="M34.535 9.822a5.13 5.13 0 0 0 1.887-.357 4.952 4.952 0 0 0 1.6-1.02 4.704 4.704 0 0 0 1.07-1.529 4.53 4.53 0 0 0 .377-1.802 4.53 4.53 0 0 0-.376-1.803 4.704 4.704 0 0 0-1.07-1.528 4.953 4.953 0 0 0-1.6-1.02 5.13 5.13 0 0 0-1.888-.358 5.13 5.13 0 0 0-1.887.358 4.951 4.951 0 0 0-1.6 1.02 4.703 4.703 0 0 0-1.07 1.528 4.529 4.529 0 0 0-.376 1.803c0 .618.128 1.23.376 1.802.248.572.611 1.09 1.07 1.528a4.951 4.951 0 0 0 1.6 1.02 5.13 5.13 0 0 0 1.887.358Zm-23.023 0a5.13 5.13 0 0 0 1.887-.357 4.95 4.95 0 0 0 1.6-1.02 4.701 4.701 0 0 0 1.07-1.529 4.529 4.529 0 0 0 .376-1.802c0-.619-.128-1.232-.376-1.803a4.701 4.701 0 0 0-1.07-1.528 4.951 4.951 0 0 0-1.6-1.02 5.13 5.13 0 0 0-1.887-.358 5.13 5.13 0 0 0-1.888.357 4.952 4.952 0 0 0-1.6 1.02 4.703 4.703 0 0 0-1.07 1.529 4.529 4.529 0 0 0-.376 1.803c0 .618.128 1.231.376 1.802.248.572.612 1.091 1.07 1.528a4.952 4.952 0 0 0 1.6 1.02 5.13 5.13 0 0 0 1.888.358Zm67.933-8.266c.76 0 1.384.207 1.872.622.488.414.732.959.732 1.633v23.251c0 .7-.23 1.258-.692 1.672-.46.415-1.071.622-1.83.622-.76 0-1.37-.207-1.832-.62-.461-.416-.692-.973-.692-1.673v-.973c-.597 1.063-1.465 1.892-2.605 2.488-1.112.597-2.387.895-3.825.895-1.71 0-3.242-.415-4.598-1.244-1.33-.83-2.374-1.996-3.134-3.5-.733-1.529-1.1-3.278-1.1-5.248 0-1.97.367-3.694 1.1-5.172.76-1.477 1.804-2.618 3.134-3.422 1.329-.803 2.862-1.205 4.598-1.205 1.438 0 2.713.285 3.826.856a6.085 6.085 0 0 1 2.563 2.41V3.733c0-.648.217-1.167.65-1.555.463-.415 1.073-.622 1.833-.622Zm-7.53 24.146c1.629 0 2.877-.532 3.745-1.595.895-1.063 1.343-2.58 1.343-4.549 0-1.97-.448-3.474-1.343-4.51-.868-1.063-2.102-1.595-3.703-1.595-1.628 0-2.89.519-3.785 1.556s-1.343 2.527-1.343 4.472c0 1.97.448 3.499 1.343 4.588s2.143 1.633 3.744 1.633Zm24.442 3.77c-2.034 0-3.825-.4-5.371-1.204a8.56 8.56 0 0 1-3.541-3.46c-.841-1.505-1.262-3.254-1.262-5.25s.42-3.733 1.262-5.21a8.564 8.564 0 0 1 3.54-3.46c1.547-.804 3.338-1.206 5.372-1.206 2.035 0 3.812.4 5.331 1.205a8.257 8.257 0 0 1 3.541 3.461c.841 1.477 1.262 3.214 1.262 5.21 0 1.997-.421 3.745-1.262 5.25a8.257 8.257 0 0 1-3.541 3.46c-1.519.803-3.297 1.205-5.331 1.205Zm-.04-3.77c1.655 0 2.916-.52 3.784-1.556.869-1.037 1.303-2.566 1.303-4.588 0-1.996-.434-3.512-1.303-4.549-.868-1.063-2.116-1.594-3.744-1.594-1.627 0-2.89.53-3.784 1.594-.868 1.037-1.303 2.553-1.303 4.55 0 2.02.434 3.55 1.303 4.587.868 1.037 2.116 1.556 3.744 1.556ZM127.538 9.76c.76 0 1.37.207 1.831.621.462.416.692.973.692 1.672v15.359c0 2.98-.868 5.236-2.604 6.766-1.737 1.53-4.3 2.294-7.692 2.294-2.957 0-5.426-.53-7.406-1.594-1.004-.57-1.506-1.258-1.506-2.061 0-.57.136-1.023.407-1.36a1.453 1.453 0 0 1 1.139-.507c.245 0 .543.053.896.157.352.129.719.272 1.098.427.85.345 1.719.644 2.605.894.787.207 1.682.312 2.686.312 3.554 0 5.331-1.66 5.331-4.978v-2.488c-.597 1.063-1.465 1.891-2.604 2.489-1.14.57-2.442.855-3.907.855-1.737 0-3.283-.39-4.64-1.166-1.329-.805-2.373-1.919-3.133-3.344-.76-1.427-1.14-3.072-1.14-4.939 0-1.866.367-3.512 1.099-4.938.76-1.452 1.818-2.566 3.174-3.344 1.357-.803 2.903-1.205 4.64-1.205 1.465 0 2.767.298 3.907.894a5.97 5.97 0 0 1 2.604 2.45v-1.011c0-.674.231-1.218.692-1.634.461-.414 1.072-.621 1.831-.621Zm-7.691 15.086c1.628 0 2.889-.506 3.784-1.516.923-1.012 1.384-2.398 1.384-4.16 0-1.79-.461-3.19-1.384-4.2-.895-1.01-2.156-1.516-3.784-1.516-1.601 0-2.863.505-3.785 1.516-.922 1.01-1.384 2.41-1.384 4.2 0 1.762.462 3.148 1.384 4.16.922 1.011 2.184 1.517 3.785 1.517Zm22.686 4.627c-2.957 0-5.344-.557-7.162-1.672-.868-.492-1.302-1.193-1.302-2.1 0-.518.149-.933.447-1.243a1.413 1.413 0 0 1 1.099-.507c.461 0 1.099.209 1.913.623a18.89 18.89 0 0 0 2.36.894c.733.208 1.655.311 2.767.311 1.14 0 2.022-.181 2.646-.545.651-.363.976-.867.976-1.516 0-.44-.135-.79-.407-1.049-.244-.26-.705-.493-1.383-.7-.652-.233-1.655-.492-3.012-.778-2.414-.466-4.151-1.127-5.209-1.983-1.031-.855-1.546-2.035-1.546-3.538 0-1.14.352-2.165 1.058-3.072.705-.933 1.668-1.646 2.889-2.139 1.248-.518 2.659-.777 4.232-.777 1.14 0 2.239.143 3.297.428a9.88 9.88 0 0 1 2.849 1.165c.868.52 1.302 1.206 1.302 2.062 0 .518-.149.96-.448 1.322a1.412 1.412 0 0 1-1.099.506c-.298 0-.597-.053-.895-.156a26.24 26.24 0 0 1-1.058-.544c-.787-.39-1.465-.674-2.035-.855-.57-.208-1.275-.312-2.116-.312-1.004 0-1.804.195-2.401.583-.57.389-.855.92-.855 1.595 0 .647.299 1.14.896 1.477.597.337 1.75.674 3.459 1.011 1.818.364 3.242.777 4.273 1.244 1.031.467 1.763 1.05 2.197 1.75.462.7.692 1.595.692 2.683 0 1.763-.773 3.176-2.319 4.238-1.52 1.063-3.555 1.594-6.105 1.594Z"/></svg>