<svg xmlns="http://www.w3.org/2000/svg" width="164" height="37" fill="none"><g clip-path="url(#a)"><path fill="#9C9C9C" d="M2.688 28.732c-.812 0-1.47-.24-1.974-.722C.238 27.528 0 26.9 0 26.124V2.649C0 1.873.224 1.27.672.843 1.148.415 1.792.2 2.604.2h14.742c1.708 0 2.562.695 2.562 2.086 0 1.365-.854 2.047-2.562 2.047H5.334v7.705h11.172c1.708 0 2.562.695 2.562 2.086 0 1.365-.854 2.047-2.562 2.047H5.334v9.952c0 .776-.238 1.404-.714 1.886-.476.481-1.12.722-1.932.722Zm24.925 0c-.756 0-1.386-.2-1.89-.602-.476-.428-.714-1.03-.714-1.805V2.368c0-.776.238-1.365.714-1.766C26.227.2 26.857 0 27.613 0s1.386.2 1.89.602c.504.401.756.99.756 1.766v23.957c0 .775-.252 1.377-.756 1.805-.504.402-1.134.602-1.89.602Zm24.314-5.618c.476 0 .854.174 1.134.522.308.348.462.816.462 1.404 0 .83-.518 1.525-1.554 2.087-.952.508-2.03.923-3.234 1.244-1.204.294-2.352.442-3.444.442-3.304 0-5.922-.91-7.854-2.73-1.932-1.818-2.898-4.306-2.898-7.463 0-2.007.42-3.786 1.26-5.337a8.97 8.97 0 0 1 3.528-3.612c1.54-.856 3.276-1.284 5.208-1.284 1.848 0 3.458.388 4.83 1.164 1.372.775 2.436 1.872 3.192 3.29.756 1.418 1.134 3.09 1.134 5.016 0 1.15-.532 1.726-1.596 1.726h-12.39c.168 1.846.714 3.21 1.638 4.093.924.856 2.268 1.284 4.032 1.284.896 0 1.68-.107 2.352-.32.7-.215 1.484-.51 2.352-.884.84-.428 1.456-.642 1.848-.642ZM44.66 11.918c-1.428 0-2.576.428-3.444 1.284-.84.857-1.344 2.087-1.512 3.692h9.492c-.056-1.632-.476-2.862-1.26-3.692-.784-.856-1.876-1.284-3.276-1.284ZM75.383 24.8c.504.481.756 1.03.756 1.645 0 .588-.238 1.124-.714 1.605a2.352 2.352 0 0 1-1.68.682c-.7 0-1.302-.28-1.806-.842l-5.922-6.26-5.922 6.26c-.532.535-1.134.802-1.806.802-.616 0-1.162-.227-1.638-.682-.476-.455-.714-.977-.714-1.565 0-.615.252-1.164.756-1.645l6.132-6.38-5.796-6.02c-.504-.482-.756-1.03-.756-1.646 0-.615.238-1.136.714-1.564.476-.455 1.022-.683 1.638-.683.672 0 1.274.268 1.806.803l5.586 5.859 5.586-5.86c.532-.534 1.134-.802 1.806-.802.644 0 1.19.228 1.638.683.476.428.714.95.714 1.565s-.252 1.163-.756 1.645l-5.796 6.02 6.174 6.38Zm23.236-10.915c1.708.454 3.024 1.284 3.948 2.488.952 1.203 1.428 2.675 1.428 4.414 0 2.408-.91 4.294-2.73 5.658-1.792 1.364-4.27 2.046-7.434 2.046H82.995c-.812 0-1.456-.213-1.932-.642-.448-.428-.672-1.03-.672-1.805V2.649c0-.776.224-1.378.672-1.806C81.539.415 82.183.2 82.995.2H93.41c3.08 0 5.488.655 7.224 1.966 1.764 1.284 2.646 3.09 2.646 5.417 0 1.499-.42 2.796-1.26 3.893-.812 1.097-1.946 1.9-3.402 2.408h.001Zm-12.936-1.766h6.846c3.724 0 5.586-1.324 5.586-3.973 0-1.337-.462-2.327-1.386-2.97-.924-.641-2.324-.962-4.2-.962h-6.846v7.905Zm7.56 12.36c1.96 0 3.388-.335 4.284-1.004.896-.668 1.344-1.712 1.344-3.13s-.462-2.474-1.386-3.17c-.896-.695-2.31-1.043-4.242-1.043h-7.56v8.347h7.56Zm17.96 4.253c-.756 0-1.386-.2-1.89-.602-.476-.428-.714-1.03-.714-1.805V2.368c0-.776.238-1.365.714-1.766.504-.401 1.134-.602 1.89-.602s1.386.2 1.89.602c.504.401.756.99.756 1.766v23.957c0 .775-.252 1.377-.756 1.805-.504.402-1.134.602-1.89.602Zm17.426.08c-2.1 0-3.948-.414-5.544-1.243a8.841 8.841 0 0 1-3.654-3.572c-.868-1.552-1.302-3.357-1.302-5.417 0-2.06.434-3.853 1.302-5.378a8.84 8.84 0 0 1 3.654-3.571c1.596-.83 3.444-1.244 5.544-1.244 2.1 0 3.934.415 5.502 1.244a8.52 8.52 0 0 1 3.654 3.571c.868 1.525 1.302 3.318 1.302 5.378s-.434 3.865-1.302 5.417a8.52 8.52 0 0 1-3.654 3.572c-1.568.829-3.402 1.244-5.502 1.244Zm-.042-3.892c1.708 0 3.01-.535 3.906-1.605.896-1.07 1.344-2.649 1.344-4.735 0-2.06-.448-3.625-1.344-4.695-.896-1.097-2.184-1.646-3.864-1.646-1.68 0-2.982.549-3.906 1.646-.896 1.07-1.344 2.635-1.344 4.695 0 2.086.448 3.665 1.344 4.735.896 1.07 2.184 1.605 3.864 1.605Zm32.222-16.453c.784 0 1.414.214 1.89.642.476.428.714 1.004.714 1.726v15.85c0 3.077-.896 5.405-2.688 6.983-1.792 1.578-4.438 2.368-7.938 2.368-3.052 0-5.6-.549-7.644-1.645-1.036-.59-1.554-1.298-1.554-2.127 0-.589.14-1.057.42-1.405.308-.348.7-.522 1.176-.522.252 0 .56.054.924.161.364.134.742.28 1.134.441 1.008.402 1.904.71 2.688.923.812.214 1.736.321 2.772.321 3.668 0 5.502-1.712 5.502-5.136v-2.568c-.616 1.097-1.512 1.953-2.688 2.568-1.176.588-2.52.883-4.032.883-1.792 0-3.388-.402-4.788-1.204-1.372-.83-2.45-1.98-3.234-3.451-.784-1.472-1.176-3.17-1.176-5.097 0-1.926.378-3.625 1.134-5.096.784-1.498 1.876-2.649 3.276-3.451 1.4-.83 2.996-1.244 4.788-1.244 1.512 0 2.856.308 4.032.923a6.16 6.16 0 0 1 2.688 2.528v-1.043c0-.696.238-1.258.714-1.686.476-.428 1.106-.642 1.89-.642Zm-7.938 15.57c1.68 0 2.982-.521 3.906-1.565.952-1.043 1.428-2.474 1.428-4.294 0-1.846-.476-3.29-1.428-4.334-.924-1.043-2.226-1.565-3.906-1.565-1.652 0-2.954.522-3.906 1.566-.952 1.043-1.428 2.487-1.428 4.333 0 1.82.476 3.25 1.428 4.294.952 1.043 2.254 1.565 3.906 1.565Z"/></g><defs><clipPath id="a"><path fill="#fff" d="M0 0h164v36.307H0z"/></clipPath></defs></svg>