<svg xmlns="http://www.w3.org/2000/svg" width="139" height="48" fill="none"><g clip-path="url(#a)"><path fill="#9C9C9C" d="M24.912 10.304 20.31 37.34h-6.612l1.68-9.763H8.256L6.61 37.341H0l4.639-27.037h6.575L9.242 21.719h7.122l1.974-11.415h6.574ZM38.473 37.34l.22-5.895h-6.1l-1.79 5.895h-6.977l9.388-27.037h12.053l.147 27.037h-6.941Zm-1.497-20.466-2.885 9.538h4.785l.401-9.537h-2.301Zm36.807-6.571L69.18 37.34h-6.612l-4.601-14.794-2.484 14.795H48.87l4.639-27.038h6.794l4.53 13.82 2.373-13.82h6.577Zm15.425 0c3.19 0 5.467.826 6.83 2.478.999 1.252 1.497 2.817 1.497 4.694 0 .677-.06 1.39-.181 2.14l-1.425 8.375c-.487 2.828-1.681 5.094-3.58 6.797-1.9 1.703-4.359 2.553-7.38 2.553H74.34l4.64-27.037h10.228Zm-2.302 5.858h-2.374l-2.593 15.32h3.47c1.144 0 2.033-.313 2.666-.938.658-.652 1.108-1.703 1.35-3.154l1.061-6.159c.092-.497.141-1 .146-1.503 0-2.379-1.241-3.566-3.726-3.566Zm30.206 21.179H98.775l4.641-27.037h18.337l-1.023 5.858h-11.762l-.84 5.07h9.716l-1.022 5.857h-9.717l-.73 4.394h11.762l-1.025 5.858Zm20.865 0H121.32l4.64-27.037h6.575l-3.616 21.179H139l-1.023 5.858Zm-64.506 4.812h63.543l-1.985 5.62H71.486l1.985-5.62ZM6.95 0h69.5l-1.986 5.62h-69.5L6.95 0Z"/></g><defs><clipPath id="a"><path fill="#fff" d="M0 0h139v47.773H0z"/></clipPath></defs></svg>