<svg xmlns="http://www.w3.org/2000/svg" width="208" height="40" fill="none"><mask id="a" width="208" height="40" x="0" y="0" maskUnits="userSpaceOnUse" style="mask-type:luminance"><path fill="#fff" d="M0 0h208v39.173H0V0Z"/></mask><g mask="url(#a)"><path fill="#9C9C9C" fill-rule="evenodd" d="M13.935 34.514a.903.903 0 0 1-.382-.089.86.86 0 0 1-.303-.24 2.277 2.277 0 0 1-.45-.983 12.798 12.798 0 0 1-.25-1.376 15.904 15.904 0 0 1-.106-1.793c-.02-1.317-.016-2.634.014-3.95a89.17 89.17 0 0 0 .026-1.894V9.14c0-.742.005-1.305.014-1.692.009-.387.04-.825.091-1.313.03-.363.096-.722.199-1.073.1-.27.233-.528.395-.77a1.64 1.64 0 0 1 .633-.606c.308-.147.625-.277.949-.392a6.56 6.56 0 0 1 1.291-.315 39.71 39.71 0 0 1 1.728-.202v-1.39l-.45-.43H1.412l-.422.43v1.186c2.672.152 4.166.876 4.482 2.172.184 1.094.272 2.2.264 3.308v23.052a22.125 22.125 0 0 1-.159 3.586 1.64 1.64 0 0 1-.316.504 9.62 9.62 0 0 1-.645.669c-.18.165-.35.338-.514.518v.883c13.587 0 21.997.084 25.23.254l1.135-3.662-.712-.48c-5.25.631-10.53 1.01-15.819 1.137h-.001ZM39.191 23.96a.76.76 0 0 1-.158.025c-.263 0-.395-.092-.395-.277.001-.837.067-1.673.198-2.5.148-.903.395-1.787.738-2.639a9.88 9.88 0 0 1 1.347-2.424 6.275 6.275 0 0 1 2.263-1.79 6.577 6.577 0 0 1 2.865-.621 4.301 4.301 0 0 1 2.073.408c.643.305 1.19.765 1.591 1.334a6.712 6.712 0 0 1 1.24 3.99c-.004.26-.09.513-.248.725-.158.212-.38.373-.636.461a44.463 44.463 0 0 1-4.416 1.44 307.411 307.411 0 0 0-6.3 1.844.77.77 0 0 0-.162.024Zm15.66 7.877c-3.165 1.835-5.898 2.752-8.198 2.752a7.75 7.75 0 0 1-4.377-1.237 7.59 7.59 0 0 1-2.755-3.093 9.188 9.188 0 0 1-.883-4.001c11.495-3.417 17.295-5.126 17.4-5.126.457-.09.864-.332 1.15-.684.285-.352.429-.79.405-1.235a6.944 6.944 0 0 0-.883-3.56 6.295 6.295 0 0 0-2.386-2.36 11.875 11.875 0 0 0-3.256-1.238 17.367 17.367 0 0 0-3.785-.392 16.604 16.604 0 0 0-6.642 1.276 12.7 12.7 0 0 0-4.758 3.409 15.31 15.31 0 0 0-2.755 4.797 16.464 16.464 0 0 0-.95 5.567c0 3.89 1.1 6.801 3.296 8.737 1.986 1.768 4.79 2.65 8.41 2.65a14.086 14.086 0 0 0 5.972-1.388 46.567 46.567 0 0 0 6.393-3.688l-.577-.982-.821-.203ZM90.36 5.214c-.706-1.763-2.094-3.2-3.876-4.015a17.039 17.039 0 0 0-6.986-1.211 21.425 21.425 0 0 0-5.18.605 16.162 16.162 0 0 0-4.456 1.819 8.917 8.917 0 0 0-3.203 3.296 9.492 9.492 0 0 0-1.187 4.784c0 1.192.302 2.366.883 3.42a9.62 9.62 0 0 0 2.215 2.766 26.84 26.84 0 0 0 3.11 2.26 36.666 36.666 0 0 0 3.402 1.919c1.1.54 2.181 1.112 3.243 1.717.88.476 1.706 1.039 2.465 1.68 1.95 1.733 2.926 3.382 2.926 4.948a5.858 5.858 0 0 1-.535 2.416 6.1 6.1 0 0 1-1.495 2.015 6.695 6.695 0 0 1-2.23 1.446 6.943 6.943 0 0 1-2.647.486 7.24 7.24 0 0 1-3.082-.595 6.932 6.932 0 0 1-2.494-1.83c-1.4-1.53-2.163-3.498-2.148-5.53l-1.027-.354-5.246 5.63a12.144 12.144 0 0 0 4.72 3.877 14.382 14.382 0 0 0 6.195 1.352c1.959-.01 3.905-.3 5.774-.86a21.792 21.792 0 0 0 5.326-2.336 12.603 12.603 0 0 0 3.914-3.736 8.486 8.486 0 0 0 1.516-4.81 7.164 7.164 0 0 0-.5-2.69 8.498 8.498 0 0 0-1.292-2.222c-.64-.75-1.38-1.416-2.202-1.981a28.308 28.308 0 0 0-2.808-1.782 97.922 97.922 0 0 0-3.532-1.83 46.25 46.25 0 0 1-2.452-1.226c-.76-.424-1.5-.882-2.218-1.37a10.971 10.971 0 0 1-2.002-1.681 7.73 7.73 0 0 1-1.266-1.97 5.772 5.772 0 0 1-.527-2.437 4.925 4.925 0 0 1 .376-2.005 5.112 5.112 0 0 1 1.164-1.707 5.462 5.462 0 0 1 1.87-1.166 5.66 5.66 0 0 1 2.203-.348c.931-.039 1.86.12 2.719.465.859.345 1.628.867 2.251 1.529a8.652 8.652 0 0 1 2.254 4.823l.923.277 5.142-3.838Zm25.638 9.683a5.221 5.221 0 0 0-1.977-1.893 9.794 9.794 0 0 0-2.61-.972 13.97 13.97 0 0 0-2.992-.303 16.279 16.279 0 0 0-5.629.922 12.338 12.338 0 0 0-4.165 2.437 13.266 13.266 0 0 0-2.742 3.571 16.477 16.477 0 0 0-1.569 4.23 21.112 21.112 0 0 0-.474 4.519c-.006 1.29.185 2.574.566 3.81.37 1.198.945 2.328 1.7 3.346a7.78 7.78 0 0 0 3.099 2.424c1.418.62 2.963.926 4.521.897 4.939 0 9.579-2.08 13.92-6.237l-.527-.732-.659-.151c-3.216 2.373-6.187 3.56-8.911 3.56a6.546 6.546 0 0 1-2.939-.645 5.875 5.875 0 0 1-2.099-1.665 9.96 9.96 0 0 1-1.332-2.348 12.158 12.158 0 0 1-.751-2.588 15.38 15.38 0 0 1-.211-2.525c.006-1.075.103-2.147.29-3.206.207-1.18.516-2.341.923-3.473a7.21 7.21 0 0 1 1.872-2.929c.379-.367.83-.657 1.328-.854a4.213 4.213 0 0 1 1.572-.294 4.029 4.029 0 0 1 2.071.447 3.8 3.8 0 0 1 1.514 1.421 8.547 8.547 0 0 1 1.16 4.596l.923.354 4.983-2.828a6.189 6.189 0 0 0-.855-2.89Zm9.663 7.512c.134-.992.368-1.968.699-2.916.303-.922.733-1.8 1.278-2.613a6.006 6.006 0 0 1 2.044-1.83 5.835 5.835 0 0 1 2.913-.72 6.028 6.028 0 0 1 3.15.795 5.34 5.34 0 0 1 2.043 2.172c.477.923.822 1.904 1.027 2.915.217 1.09.324 2.198.317 3.308 0 1.01-.009 1.852-.027 2.525-.028.81-.089 1.619-.184 2.424a14.004 14.004 0 0 1-.435 2.348 11.693 11.693 0 0 1-.804 1.97 4.972 4.972 0 0 1-1.279 1.64 6.41 6.41 0 0 1-1.872 1.01 7.561 7.561 0 0 1-2.57.405 4.833 4.833 0 0 1-2.703-.784 5.904 5.904 0 0 1-1.884-1.93 11.625 11.625 0 0 1-1.134-2.639 16.83 16.83 0 0 1-.607-2.766 20.054 20.054 0 0 1-.158-2.436c-.001-.962.062-1.923.186-2.878Zm-3.269 13.054c1.915 1.667 4.956 2.5 9.122 2.5 1.54.01 3.076-.16 4.574-.506a13.84 13.84 0 0 0 3.978-1.628 11.595 11.595 0 0 0 3.177-2.815 12.9 12.9 0 0 0 2.083-4.192c.532-1.824.789-3.711.765-5.605a10.103 10.103 0 0 0-.869-4.445 10.543 10.543 0 0 0-2.743-3.685c-2.198-1.885-5.388-2.828-9.57-2.828-4.183 0-7.628 1.238-10.335 3.712a12.396 12.396 0 0 0-3.077 4.27 11.912 11.912 0 0 0-.983 5.098c0 4.511 1.291 7.886 3.875 10.124h.003Zm41.258-19.997c1.406 0 2.408.27 3.006.808.557.65.909 1.44 1.014 2.274.221.984.358 1.986.409 2.992.035.883.053 2.024.053 3.421a411.243 411.243 0 0 1-.039 5.441c-.009.547-.005 1.19.012 1.932.005.553.04 1.105.106 1.653.053.363.123.759.211 1.187.061.36.186.704.369 1.022.158.253.352.484.578.683a4.197 4.197 0 0 0 2.899 1.01c1.319 0 2.83-.64 4.535-1.92a48.84 48.84 0 0 0 4.06-3.61l-.606-.86h-.633a6.602 6.602 0 0 1-3.611 1.338 2.153 2.153 0 0 1-.822-.115 2.08 2.08 0 0 1-.708-.415 1.992 1.992 0 0 1-.462-.492 3.498 3.498 0 0 1-.276-1.035 14 14 0 0 1-.132-2.184c0-.555.031-1.453.092-2.689.049-.879.08-1.759.093-2.639v-1.515c.017-1.633.013-2.764-.013-3.397a22.991 22.991 0 0 0-.304-2.575 4.558 4.558 0 0 0-.817-2.247 5.474 5.474 0 0 0-1.635-1.16 5.96 5.96 0 0 0-2.689-.545c-3.093 0-6.679 1.213-10.756 3.637l-.633-.227a4.652 4.652 0 0 0-.909-2.588c-.519-.65-1.411-.973-2.676-.973-.758.01-1.51.133-2.228.366-.835.268-1.632.633-2.374 1.086-.8.48-1.494.927-2.083 1.338a62.34 62.34 0 0 0-2.043 1.502l.975 1.238c.179-.111.36-.22.541-.328.307-.185.575-.336.804-.455l.817-.416c.283-.148.579-.27.884-.37.233-.076.477-.119.724-.125.305-.007.606.067.87.215.268.169.47.417.578.707.132.305.246.616.342.933.108.427.17.863.185 1.301.036.574.057 1.036.064 1.389.008.352.012.883.013 1.59v.43c0 1.65-.132 6.7-.395 15.15l.659.353 5.932-1.642c-.176-.723-.308-3.004-.396-6.84-.087-3.754-.13-7.508-.128-11.263 3.058-1.582 5.237-2.373 6.538-2.373l.005.002Zm25.573 8.609a.725.725 0 0 1-.158.026c-.263 0-.395-.092-.396-.277.001-.838.067-1.673.199-2.5.148-.902.395-1.787.737-2.64a9.937 9.937 0 0 1 1.345-2.423 6.273 6.273 0 0 1 2.263-1.79 6.572 6.572 0 0 1 2.865-.622 4.301 4.301 0 0 1 2.073.408 4.081 4.081 0 0 1 1.591 1.335 6.705 6.705 0 0 1 1.239 3.989c-.004.26-.09.513-.248.725a1.338 1.338 0 0 1-.635.462 44.524 44.524 0 0 1-4.415 1.44 306.795 306.795 0 0 0-6.301 1.844.826.826 0 0 0-.158.023h-.001Zm15.66 7.878c-3.165 1.835-5.898 2.753-8.199 2.752a7.757 7.757 0 0 1-4.377-1.237 7.586 7.586 0 0 1-2.754-3.092 9.195 9.195 0 0 1-.884-4.004c11.495-3.415 17.295-5.124 17.401-5.124.456-.09.864-.332 1.15-.684.285-.352.429-.79.405-1.235a6.948 6.948 0 0 0-.883-3.56 6.295 6.295 0 0 0-2.386-2.361 11.883 11.883 0 0 0-3.256-1.237 17.36 17.36 0 0 0-3.786-.392 16.602 16.602 0 0 0-6.64 1.275 12.7 12.7 0 0 0-4.758 3.41 15.295 15.295 0 0 0-2.755 4.797 16.437 16.437 0 0 0-.949 5.567c0 3.889 1.098 6.8 3.295 8.737 1.986 1.767 4.789 2.65 8.41 2.65a14.085 14.085 0 0 0 5.972-1.388 46.652 46.652 0 0 0 6.393-3.687l-.577-.983-.822-.204Z" clip-rule="evenodd"/></g></svg>