<svg xmlns="http://www.w3.org/2000/svg" width="148" height="35" fill="none"><path fill="#9C9C9C" d="M48.624 33.938V0h-8.976L20.88 26.187l-3.168-3.806c5.664-.826 8.832-5.596 8.832-10.686 0-4.862-2.784-8.943-6.528-10.503C18.144.412 15.36 0 11.664 0H0v33.938h8.688V22.977h.096l8.208 10.96h9.168l3.12-4.907h10.272v4.908h9.072ZM8.688 17.06V7.614h3.456c3.408 0 5.712 1.651 5.712 4.586 0 3.119-2.16 4.862-5.76 4.862H8.688Zm30.864 5.091H33.6l5.856-9.402h.096v9.402ZM85.03 33.938V0h-8.688l.384 21.463L62.902 0h-7.824v33.938h8.688l-.24-20.73 13.632 20.73h7.872Zm26.198 0v-7.613h-11.04V20.5h10.704v-7.613h-10.704V7.613h11.04V0H91.5v33.938h19.728Zm36.062 0-12.528-17.015L146.522 0h-9.504l-10.032 15.272h-.096V0h-9.072v33.938h9.072V19.262h.096l9.696 14.676h10.608Z"/></svg>