<svg xmlns="http://www.w3.org/2000/svg" width="200" height="47" fill="none"><g fill="#9C9C9C" clip-path="url(#a)"><path d="M54.381 42.053c-3.32 0-5.865-.542-7.636-1.628-1.74-1.116-2.609-2.745-2.609-4.886 0-1.085.38-1.976 1.138-2.67.791-.723 1.803-1.085 3.036-1.085.727.03 1.28.21 1.66.543.38.302.57.588.57.86 0 .03-.159.135-.475.316-.316.181-.6.453-.854.814-.253.363-.38.86-.38 1.493 0 1.418.444 2.519 1.329 3.303.917.754 2.324 1.13 4.221 1.13 1.297 0 2.435-.24 3.416-.723.98-.482 1.723-1.116 2.229-1.9.537-.814.806-1.659.806-2.534 0-1.085-.332-2.02-.996-2.804a7.72 7.72 0 0 0-2.371-1.945c-.95-.543-2.246-1.162-3.89-1.856-1.897-.814-3.43-1.553-4.6-2.217a9.744 9.744 0 0 1-2.99-2.623c-.821-1.116-1.232-2.488-1.232-4.117 0-2.624.932-4.585 2.798-5.881 1.898-1.298 4.38-1.945 7.447-1.945 2.403 0 4.49.482 6.261 1.447 1.803.965 2.704 2.383 2.704 4.252 0 1.086-.396 1.991-1.186 2.715-.759.694-1.755 1.04-2.988 1.04-.728-.03-1.281-.196-1.66-.497-.38-.332-.57-.634-.57-.905 0-.03.206-.136.617-.317.443-.18.822-.452 1.138-.814.348-.362.522-.86.522-1.492 0-1.116-.458-1.992-1.375-2.625-.886-.634-2.024-.95-3.416-.95-1.928 0-3.399.438-4.41 1.312-.981.845-1.471 1.9-1.471 3.167 0 1.055.3 1.946.901 2.669.6.694 1.565 1.387 2.893 2.08a62.474 62.474 0 0 0 3.51 1.63c2.024.874 3.621 1.674 4.791 2.398a9.415 9.415 0 0 1 2.988 2.85c.822 1.175 1.234 2.64 1.234 4.388 0 1.508-.506 2.88-1.518 4.118-.98 1.205-2.325 2.155-4.032 2.849-1.676.693-3.526 1.04-5.55 1.04Zm24.013-.36c-2.15 0-3.858-.62-5.123-1.856-1.265-1.237-1.897-2.866-1.897-4.887v-8.37c0-.783-.032-1.356-.095-1.718-.031-.361-.221-.679-.57-.95-.347-.271-.932-.407-1.754-.407-.38 0-.664-.045-.854-.136-.19-.12-.284-.377-.284-.769a.75.75 0 0 1 .19-.497c.126-.181.316-.286.569-.317 1.992-.272 3.7-.664 5.122-1.177.443-.15.806-.24 1.091-.271h.142c.506 0 .76.286.76.86v13.708c0 1.387.458 2.458 1.375 3.212a4.984 4.984 0 0 0 3.178 1.085c1.486 0 2.75-.347 3.794-1.04 1.044-.694 1.74-1.388 2.087-2.081v-9.5c0-.785-.031-1.357-.094-1.72-.032-.361-.222-.679-.57-.95-.348-.271-.933-.407-1.755-.407-.38 0-.664-.045-.853-.136-.19-.12-.285-.377-.285-.769a.75.75 0 0 1 .19-.497c.126-.181.316-.286.569-.317 1.992-.272 3.7-.664 5.123-1.177.442-.15.806-.24 1.09-.271h.143c.506 0 .759.286.759.86v15.654c0 1.78 1.249 2.67 3.747 2.67.537 0 .806.286.806.86 0 .42-.269.678-.806.767l-7.637.498c-.221 0-.348-.075-.38-.225-.03-.122-.047-.347-.047-.679v-2.535h-.094a56.677 56.677 0 0 1-2.23 1.9c-.569.422-1.312.784-2.23 1.086-.885.332-1.944.497-3.177.497v.001Zm19.196-.408a.744.744 0 0 1-.318-.072.712.712 0 0 1-.252-.2 1.079 1.079 0 0 1-.19-.633c.032-.392.127-.619.285-.678.159-.09.443-.137.854-.137.822 0 1.407-.135 1.755-.407.348-.271.538-.588.569-.95.064-.363.095-.935.095-1.72v-10.36c0-.783-.031-1.356-.095-1.72-.031-.36-.221-.677-.569-.948-.348-.271-.933-.408-1.755-.408-.38 0-.664-.045-.853-.136-.19-.12-.285-.376-.285-.769 0-.18.063-.346.19-.496.126-.182.316-.287.569-.318 2.055-.302 3.747-.693 5.075-1.176.538-.15.901-.241 1.091-.271h.142c.506 0 .759.287.759.86v2.804h.142c1.107-1.056 2.23-1.885 3.368-2.488 1.139-.634 2.166-.95 3.083-.95 1.044 0 1.866.377 2.467 1.13.632.725.948 1.57.948 2.534 0 .845-.268 1.599-.806 2.262-.538.664-1.281.996-2.229.996a2.533 2.533 0 0 1-1.186-.272c-.316-.181-.49-.331-.522-.452.032-.06.19-.241.474-.543.285-.332.427-.708.427-1.13 0-.544-.158-.981-.474-1.313-.285-.332-.68-.497-1.186-.497-.537 0-1.217.256-2.039.769-.823.482-1.629 1.1-2.419 1.854V36.49c0 .784.031 1.356.094 1.72.064.36.269.678.617.95.348.27.933.406 1.755.406h.285c.253 0 .442.046.569.136.126.09.205.317.237.678 0 .242-.063.453-.19.634-.126.181-.316.272-.569.272a101.995 101.995 0 0 0-4.98-.137c-1.423 0-3.067.047-4.933.137Zm73.667.407c-2.15 0-4.063-.483-5.739-1.448-1.676-.995-2.988-2.292-3.937-3.891a10.362 10.362 0 0 1-1.375-5.158c0-2.261.553-4.222 1.66-5.88 1.107-1.69 2.514-2.972 4.221-3.846 1.708-.905 3.431-1.357 5.17-1.357 2.151 0 4.064.497 5.74 1.493a10.215 10.215 0 0 1 3.889 3.89 9.85 9.85 0 0 1 1.423 5.112c0 2.262-.569 4.238-1.707 5.928-1.107 1.658-2.514 2.94-4.222 3.844-1.707.876-3.415 1.313-5.123 1.313Zm0-1.674c2.151 0 3.716-.875 4.696-2.624 1.012-1.749 1.518-4.011 1.518-6.786 0-2.594-.522-4.705-1.565-6.335-1.012-1.657-2.562-2.487-4.649-2.487-2.181 0-3.762.86-4.743 2.579-.98 1.719-1.47 3.965-1.47 6.74 0 2.594.506 4.736 1.518 6.424 1.012 1.66 2.577 2.49 4.695 2.49Zm23.004 1.9c-1.55 0-2.878-.543-3.985-1.629-1.106-1.086-1.66-2.639-1.66-4.66v-13.3l-2.751.09a.602.602 0 0 1-.474-.226 1.003 1.003 0 0 1-.19-.588c0-.272.048-.497.142-.679a.704.704 0 0 1 .522-.362c1.107-.21 1.961-.543 2.562-.994.632-.484 1.091-.996 1.375-1.539.285-.573.633-1.433 1.044-2.58.158-.391.506-.587 1.043-.587.221 0 .443.06.664.181.221.09.332.241.332.452l-.332 5.158 5.55-.317h.095c.411 0 .616.286.616.86 0 .331-.063.648-.19.95-.094.272-.221.407-.379.407l-5.312-.135v13.752c0 .996.205 1.825.616 2.488.443.665 1.154.996 2.135.996.98 0 1.85-.166 2.608-.498.412-.15.664-.226.759-.226.222 0 .396.09.522.271.127.151.253.363.38.634a.48.48 0 0 1 .047.226c0 .12-.095.256-.285.407-.917.573-1.786.95-2.608 1.131-.791.21-1.74.317-2.846.317Zm-76.664-.905c.126.181.316.271.569.271a99.103 99.103 0 0 1 4.933-.136c2.119 0 4.095.046 5.929.136a.621.621 0 0 0 .299-.07.593.593 0 0 0 .223-.201c.126-.182.189-.392.189-.634-.031-.36-.11-.587-.237-.678-.095-.09-.284-.136-.569-.136h-.285c-1.043 0-1.786-.075-2.229-.226-.443-.15-.743-.422-.901-.814-.158-.423-.237-1.1-.237-2.035V22.418h5.028a.72.72 0 0 0 .569-.271.932.932 0 0 0 .237-.634c-.032-.361-.127-.588-.285-.678-.126-.12-.332-.182-.616-.182h-4.933V17.94c0-1.448.063-2.715.189-3.801a7.109 7.109 0 0 1 1.091-3.077c.601-.934 1.534-1.401 2.799-1.401.145 0 .286.007.422.023a7.32 7.32 0 0 1 .104-1.514 8.423 8.423 0 0 0-.194-.003c-2.783.06-4.949 1.07-6.498 3.032-1.518 1.93-2.277 4.449-2.277 7.555v1.9h-2.846c-.411 0-.696.045-.854.136-.158.06-.253.302-.284.723 0 .242.063.453.189.633a.781.781 0 0 0 .617.273h3.178v14.07c0 .815-.032 1.402-.095 1.764-.031.332-.221.634-.569.905-.348.272-.933.407-1.755.407-.411 0-.696.046-.854.136-.126.06-.205.286-.237.678 0 .242.063.453.19.634Z"/><path fill-rule="evenodd" d="M142.952 9.425a4.847 4.847 0 0 1-.403 1.925 5.01 5.01 0 0 1-1.143 1.631 5.287 5.287 0 0 1-1.709 1.09 5.48 5.48 0 0 1-2.015.38 5.394 5.394 0 0 1-3.724-1.47 4.924 4.924 0 0 1-1.546-3.556c0-.66.137-1.314.402-1.925a5.027 5.027 0 0 1 1.143-1.631 5.296 5.296 0 0 1 1.709-1.09 5.485 5.485 0 0 1 2.016-.381c.692 0 1.376.129 2.016.381.639.253 1.22.623 1.709 1.09A5.028 5.028 0 0 1 142.55 7.5c.265.61.402 1.265.402 1.925Zm-5.27 2.513a2.74 2.74 0 0 0 1.008-.19 2.64 2.64 0 0 0 .854-.544c.245-.234.439-.511.572-.816a2.407 2.407 0 0 0 0-1.925 2.512 2.512 0 0 0-.571-.816 2.654 2.654 0 0 0-.855-.545 2.74 2.74 0 0 0-2.87.545 2.461 2.461 0 0 0-.773 1.778c.001.667.279 1.306.773 1.778a2.698 2.698 0 0 0 1.862.735Zm-2.31 4.7v24.24c0 .27.08.481.238.633.158.181.379.27.664.27.284 0 .521-.12.711-.36.19-.212.364-.529.522-.951.158-.422.3-.754.427-.996h.237c2.055 1.479 4.49 2.217 7.304 2.217 1.898 0 3.684-.483 5.36-1.448a10.828 10.828 0 0 0 3.985-3.936c1.011-1.688 1.517-3.543 1.517-5.564 0-2.05-.442-3.875-1.328-5.474-.853-1.628-2.039-2.895-3.557-3.8-1.518-.905-3.21-1.357-5.075-1.357-1.139 0-2.293.226-3.463.679a8.935 8.935 0 0 0-3.083 1.945h-.142V16.72a8.34 8.34 0 0 1-4.317-.082Zm14.325 21.027c-1.17 1.66-2.72 2.489-4.648 2.489-1.012 0-1.913-.211-2.704-.634-.759-.422-1.376-.92-1.85-1.493-.443-.603-.711-1.147-.806-1.628V24.456c1.359-1.389 3.035-2.082 5.028-2.082 2.245 0 3.936.844 5.075 2.534 1.138 1.658 1.707 3.664 1.707 6.016 0 2.805-.6 5.053-1.802 6.74ZM12.7.35A2.044 2.044 0 0 1 13.849 0c.412 0 .813.122 1.149.35 8.56 5.833 12.44 12.824 12.685 22.855.113 4.79-.37 9.175-1.841 12.964-1.51 3.79-4.193 7.293-8.143 10.25a2.025 2.025 0 0 1-.84.364 2.07 2.07 0 0 1-.92-.039c-1.21-.331-1.416-1.7-2.09-2.552-.674.853-.878 2.22-2.09 2.551-.3.082-.615.095-.92.039a2.025 2.025 0 0 1-.839-.363c-3.95-2.957-6.634-6.46-8.143-10.25C.387 32.38-.097 27.995.016 23.205.26 13.174 4.14 6.182 12.7.351Zm4.426 41.748c2.472-2.169 3.962-4.534 5.014-7.254 1.325-3.325 1.707-7 1.592-11.552-.19-7.822-2.11-12.912-7.923-17.638V19.48c2.273.558 3.293 2.685 3.293 5.025 0 2.343-1.02 4.47-3.293 5.028v11.31s1.056.93 1.317 1.257Zm-6.588 0c-2.472-2.169-3.927-4.534-4.98-7.254-1.324-3.325-1.706-7-1.59-11.552.19-7.806 2.099-12.918 7.888-17.638V19.48c-2.273.558-3.294 2.685-3.294 5.025 0 2.343 1.02 4.47 3.294 5.028v11.31s-1.066.94-1.318 1.257Zm3.294-20.107c-.698 0-1.368.264-1.862.735a2.46 2.46 0 0 0-.773 1.777c0 1.39 1.18 2.514 2.635 2.514.698 0 1.368-.264 1.862-.735a2.46 2.46 0 0 0 .773-1.778c0-1.388-1.18-2.513-2.635-2.513Z" clip-rule="evenodd"/></g><defs><clipPath id="a"><path fill="#fff" d="M0 0h200v46.817H0z"/></clipPath></defs></svg>