<svg xmlns="http://www.w3.org/2000/svg" width="196" height="33" fill="none"><path fill="#9C9C9C" d="M21.644 31.487a7.258 7.258 0 0 1-3.38-.735 6.777 6.777 0 0 1-2.574-2.188c-2.045 1.795-4.695 2.832-7.47 2.923-4.987 0-7.69-3.31-6.777-8.055.694-3.567 3.799-7.143 4.667-10.013-1.68-.963-4.174-1.633-5.343.335L0 13.315c.612-2.157 2.091-3.592 4.228-3.592 2.137 0 3.717 1.194 5.754.094h1.625c-.867 4.298-3.059 7.736-4.228 13.753-.712 3.688.612 5.364 2.85 5.364a6.892 6.892 0 0 0 4.273-2.159 16.534 16.534 0 0 1-1.324-6.61C13.178 14.94 15.726 9.43 20 9.43c2.192 0 3.817 1.435 3.817 4.84 0 3.403-2.191 8.672-4.986 11.981.151.788.59 1.502 1.24 2.019.65.516 1.471.802 2.322.81 4.073 0 6.922-5.752 6.922-11.072 0-5.32-2.447-5.08-2.237-6.876.019-.224.084-.443.192-.644.107-.2.255-.378.435-.524a1.9 1.9 0 0 1 1.318-.413c1.27 0 2.94 1.512 2.94 7.65 0 7.821-4.419 14.286-10.319 14.286Zm-.922-19.358c-1.27 0-2.494 4.41-2.649 8.965-.06.975-.04 1.952.055 2.923a22.019 22.019 0 0 0 3.415-9.825c-.009-1.548-.31-2.063-.822-2.063h.001Zm19.607 19.16a3.87 3.87 0 0 1-1.577-.173 3.693 3.693 0 0 1-1.35-.785 3.427 3.427 0 0 1-.868-1.25 3.253 3.253 0 0 1-.224-1.48c0-2.106 2.905-12.601 2.905-14.329 0-.816-.201-1.297-.968-1.297a4.535 4.535 0 0 0-2.293 1.056v-1.486a7.732 7.732 0 0 1 4.84-1.865 3.913 3.913 0 0 1 1.583.19c.506.173.966.445 1.349.801.382.356.678.786.866 1.262.187.473.263.98.22 1.485 0 2.106-2.903 12.559-2.903 14.278 0 .816.2 1.298.968 1.298a4.904 4.904 0 0 0 2.292-1.006v1.435a7.628 7.628 0 0 1-4.84 1.866ZM43.89.954c.398-.011.794.058 1.161.205.366.147.695.367.961.645.267.276.467.605.585.963.118.359.15.738.097 1.11a3.239 3.239 0 0 1-1.121 2.062c-.63.539-1.44.844-2.285.86a2.89 2.89 0 0 1-1.16-.204 2.744 2.744 0 0 1-.962-.644 2.519 2.519 0 0 1-.585-.964 2.434 2.434 0 0 1-.097-1.11 3.24 3.24 0 0 1 1.121-2.062 3.63 3.63 0 0 1 2.285-.86Zm11.306 25.831c-.255 1.298-.1 2.2.868 2.2a4.698 4.698 0 0 0 2.292-1.006l.091 1.444a7.733 7.733 0 0 1-4.84 1.866c-3.16 0-4.383-2.157-3.917-4.84l3.105-16.632c1.032-5.553.675-6.284-2.485-6.284l.201-1.34 9.525-1.187-4.84 25.78Zm26.786-.044c-.256 1.299-.156 2.253.867 2.253a4.957 4.957 0 0 0 2.293-1.058v1.487a7.552 7.552 0 0 1-4.84 1.866 3.813 3.813 0 0 1-2.531-.732 3.404 3.404 0 0 1-1.342-2.148 8.218 8.218 0 0 1-2.877 2.266 8.74 8.74 0 0 1-3.643.846c-6.055 0-8.603-5.028-7.434-11.072 1.169-6.042 6.62-10.976 12.785-10.976 1.457-.029 2.9.293 4.192.937l.155-.765c1.206-5.914.649-6.112-2.511-6.112l.155-1.34 9.57-1.187-4.84 25.736h.001ZM75.415 11.64c-3.516 0-5.853 3.928-6.776 8.768-.968 5.08-.356 8.596 2.95 8.596 2.237 0 4.785-2.58 5.552-6.517l1.882-9.97a6.772 6.772 0 0 0-3.608-.877Zm22.658 19.89c-7.078 0-9.014-4.796-8.146-9.395l2.31-12.317c1.069-5.56.713-6.327-2.447-6.327l.2-1.34 9.553-1.144-1.936 10.444a8.843 8.843 0 0 1 5.343-1.968c6.164 0 9.059 4.934 7.945 10.976-1.114 6.043-6.785 11.07-12.822 11.07Zm3.306-19.77a5.073 5.073 0 0 0-2.845.931 4.6 4.6 0 0 0-1.721 2.327l-1.425 7.736c-.868 4.599.868 6.472 3.06 6.472 3.205 0 5.196-3.351 6.264-8.862.95-4.933.083-8.577-3.342-8.577l.009-.026Zm19.169 11.484c0 3.688 1.881 5.657 5.479 5.657 1.827 0 4.484-1.195 6.165-2.777l.712 1.53a13.198 13.198 0 0 1-4.267 2.835 13.855 13.855 0 0 1-5.103 1.05c-5.342 0-8.959-3.74-8.959-8.82 0-7.52 6.621-13.228 12.987-13.228 3.872 0 6.054 2.012 6.054 4.358-.045 3.644-3.716 7.737-13.068 9.395Zm6.566-11.552c-2.904 0-5.698 3.98-6.466 9.679 5.854-1.342 8.347-5.08 8.402-7.479-.009-1.34-.676-2.2-1.945-2.2h.009Zm27.279 19.598a3.814 3.814 0 0 1-2.531-.732 3.405 3.405 0 0 1-1.341-2.148 7.911 7.911 0 0 1-2.806 2.268 8.426 8.426 0 0 1-3.587.843c-5.954 0-8.502-5.027-7.306-11.07 1.196-6.043 6.557-10.97 12.74-10.97 1.31-.005 2.608.24 3.817.724h5.808l-3.114 16.537c-.256 1.299-.155 2.253.868 2.253a4.957 4.957 0 0 0 2.292-1.058v1.487a7.553 7.553 0 0 1-4.84 1.866Zm-4.685-19.65c-3.416 0-5.808 3.928-6.722 8.768-.968 5.08-.301 8.596 2.74 8.596 2.338 0 4.84-2.682 5.553-6.517l1.881-9.97a6.18 6.18 0 0 0-3.443-.877h-.009Zm27.297 3.498c-1.379 0-1.736-1.005-2.137-2.063a2.353 2.353 0 0 0-.929-1.333 2.612 2.612 0 0 0-1.619-.471 3.154 3.154 0 0 0-2.083.644 2.816 2.816 0 0 0-1.077 1.797c-.155 1.298.867 2.398 2.803 3.98l2.594 2.01a6.324 6.324 0 0 1 2.164 2.676 5.924 5.924 0 0 1 .384 3.342c-.658 3.592-3.817 5.801-8.046 5.801-5.096 0-8.347-2.828-7.991-4.744.083-.504.353-.965.763-1.298.41-.334.933-.52 1.475-.525 1.324 0 1.826.955 2.237 2.2.264.718.771 1.33 1.443 1.747a3.828 3.828 0 0 0 2.274.558 3.32 3.32 0 0 0 2.184-.687 2.96 2.96 0 0 0 1.122-1.891c.201-1.72-.913-2.777-3.004-4.557l-2.548-2.106a6.065 6.065 0 0 1-2.028-2.49 5.69 5.69 0 0 1-.42-3.113c.457-2.304 2.74-5.158 7.991-5.158 4.073 0 6.621 2.158 6.393 3.885-.026.476-.24.926-.6 1.256-.36.333-.841.526-1.345.54Zm18.639-3.008h-4.941l-2.392 12.739c-.512 2.638-.101 3.834 1.424 3.834.813 0 2.091-.43 3.918-2.2l.1 1.864a8.853 8.853 0 0 1-3.015 2.179 9.359 9.359 0 0 1-3.706.795c-3.461 0-5.196-2.303-4.374-6.567l2.392-12.644h-3.863l.302-1.968h3.899l1.023-5.7h5.699l-1.069 5.7h4.941l-.338 1.968Z"/></svg>