<svg width="32" height="23" viewBox="0 0 32 23" fill="none" xmlns="http://www.w3.org/2000/svg">
<path d="M31.3307 4.13575C31.1499 3.49063 30.7934 2.90183 30.2968 2.42832C29.8003 1.9548 29.1811 1.61319 28.5013 1.43769C26.0067 0.799805 16 0.799805 16 0.799805C16 0.799805 5.99333 0.799805 3.49733 1.43769C2.81788 1.6135 2.19906 1.95524 1.70277 2.42872C1.20648 2.9022 0.850122 3.49084 0.669333 4.13575C0 6.51549 0 11.4796 0 11.4796C0 11.4796 0 16.4437 0.669333 18.8235C0.850115 19.4686 1.20663 20.0574 1.70319 20.5309C2.19974 21.0044 2.8189 21.346 3.49867 21.5215C5.99333 22.1594 16 22.1594 16 22.1594C16 22.1594 26.0067 22.1594 28.5027 21.5215C29.1825 21.3462 29.8017 21.0046 30.2983 20.5311C30.7949 20.0575 31.1513 19.4686 31.332 18.8235C32 16.4437 32 11.4796 32 11.4796C32 11.4796 32 6.51549 31.3307 4.13575ZM12.7267 15.9864V6.97278L21.0907 11.4796L12.7267 15.9864Z" fill="white"/>
</svg>
