<svg width="32" height="31" viewBox="0 0 32 31" fill="none" xmlns="http://www.w3.org/2000/svg">
<path d="M16 0.0634766C11.6533 0.0634766 11.1107 0.0822198 9.404 0.153444C7.7 0.228417 6.54 0.479577 5.52 0.850693C4.468 1.23306 3.57467 1.74662 2.68533 2.58007C1.796 3.41352 1.24667 4.24947 0.84 5.23662C0.444 6.19252 0.174667 7.27963 0.096 8.87656C0.016 10.476 0 10.9845 0 15.0581C0 19.1316 0.02 19.6402 0.096 21.2396C0.176 22.8353 0.444 23.9236 0.84 24.8795C1.248 25.8642 1.796 26.7026 2.68533 27.5361C3.57467 28.3683 4.46667 28.8843 5.52 29.2655C6.54133 29.6354 7.70133 29.889 9.404 29.9627C11.1107 30.0377 11.6533 30.0527 16 30.0527C20.3467 30.0527 20.8893 30.0339 22.596 29.9627C24.2987 29.8877 25.46 29.6354 26.48 29.2655C27.5307 28.8831 28.4253 28.3683 29.3147 27.5361C30.2027 26.7026 30.7533 25.868 31.16 24.8795C31.5547 23.9236 31.8253 22.8353 31.904 21.2396C31.984 19.6402 32 19.1316 32 15.0581C32 10.9845 31.98 10.476 31.904 8.87656C31.824 7.28088 31.5547 6.19128 31.16 5.23662C30.752 4.25072 30.2027 3.41352 29.3147 2.58007C28.4253 1.74662 27.5347 1.23181 26.48 0.850693C25.46 0.479577 24.2987 0.227168 22.596 0.153444C20.8893 0.0784712 20.3467 0.0634766 16 0.0634766ZM16 2.76251C20.2707 2.76251 20.78 2.7825 22.4667 2.85123C24.0267 2.91995 24.8733 3.16236 25.436 3.36979C26.1853 3.64094 26.716 3.96582 27.2787 4.48939C27.8373 5.0142 28.184 5.51277 28.4733 6.21501C28.692 6.74233 28.9533 7.53579 29.024 8.99776C29.1 10.5797 29.1173 11.0545 29.1173 15.0581C29.1173 19.0616 29.0973 19.5377 29.0187 21.1184C28.9373 22.5804 28.6773 23.3738 28.4573 23.9012C28.1587 24.6034 27.8187 25.1007 27.2587 25.6281C26.7 26.1516 26.16 26.4765 25.4187 26.7476C24.8587 26.9526 23.9987 27.1974 22.4387 27.2637C20.74 27.3349 20.24 27.3511 15.96 27.3511C11.6787 27.3511 11.1787 27.3324 9.48133 27.2587C7.92 27.1824 7.06 26.9388 6.5 26.7326C5.74133 26.4528 5.22 26.1341 4.66133 25.6093C4.1 25.0857 3.74133 24.5797 3.46133 23.8849C3.24133 23.3601 2.98267 22.5542 2.90133 21.0922C2.84133 19.5178 2.82 19.0317 2.82 15.0393C2.82 11.0458 2.84133 10.5585 2.90133 8.96528C2.98267 7.5033 3.24133 6.69859 3.46133 6.17378C3.74133 5.46153 4.1 4.97421 4.66133 4.44815C5.22 3.92459 5.74133 3.58721 6.5 3.32605C7.06 3.11863 7.90133 2.87497 9.46133 2.79999C11.1613 2.74376 11.6613 2.72502 15.94 2.72502L16 2.76251ZM16 7.35835C11.46 7.35835 7.784 10.8071 7.784 15.0581C7.784 19.3128 11.464 22.7578 16 22.7578C20.54 22.7578 24.216 19.3091 24.216 15.0581C24.216 10.8034 20.536 7.35835 16 7.35835ZM16 20.0563C13.0533 20.0563 10.6667 17.8196 10.6667 15.0581C10.6667 12.2965 13.0533 10.0599 16 10.0599C18.9467 10.0599 21.3333 12.2965 21.3333 15.0581C21.3333 17.8196 18.9467 20.0563 16 20.0563ZM26.4613 7.05471C26.4613 8.0481 25.6 8.85406 24.5413 8.85406C23.4813 8.85406 22.6213 8.04686 22.6213 7.05471C22.6213 6.06257 23.4827 5.25661 24.5413 5.25661C25.5987 5.25536 26.4613 6.06257 26.4613 7.05471Z" fill="white"/>
</svg>
