<svg width="32" height="32" viewBox="0 0 32 32" fill="none" xmlns="http://www.w3.org/2000/svg">
<g clip-path="url(#clip0_67_170)">
<circle cx="16" cy="16" r="16" fill="white"/>
<path d="M23.5833 10.0909H22.695L20.8533 4.56C20.7009 4.10394 20.4239 3.70986 20.0597 3.43091C19.6955 3.15196 19.2617 3.00156 18.8167 3H17.0833C16.4875 3 16 3.53182 16 4.18182C16 4.83182 16.4875 5.36364 17.0833 5.36364H18.8167L20.3983 10.0909H15.1875L14.7975 8.90909H14.895C15.4908 8.90909 15.9783 8.37727 15.9783 7.72727C15.9783 7.07727 15.4908 6.54545 14.895 6.54545H11.6667C11.0708 6.54545 10.5833 7.07727 10.5833 7.72727C10.5833 8.37727 11.0708 8.90909 11.6667 8.90909H12.4792L14.4508 14.8182H13.725C13.2483 12.1827 11.2225 10.2327 8.6875 10.1027C5.65417 9.93727 3 12.6909 3 16C3 19.3091 5.38333 21.9091 8.41667 21.9091C11.0817 21.9091 13.2375 19.9118 13.725 17.1818H18.275C18.7517 19.8173 20.7775 21.7673 23.3125 21.8973C26.3458 22.0509 29 19.3091 29 15.9882C29 12.6909 26.6167 10.0909 23.5833 10.0909ZM9.5 17.1818H11.4717C11.0167 18.6355 9.73833 19.64 8.2 19.5336C6.58583 19.4273 5.2425 17.9382 5.16667 16.1655C5.09083 14.0973 6.5425 12.4545 8.41667 12.4545C9.8575 12.4545 11.0383 13.4355 11.4717 14.8182H9.5C8.90417 14.8182 8.41667 15.35 8.41667 16C8.41667 16.65 8.90417 17.1818 9.5 17.1818ZM18.275 14.8182H16.7583L15.9675 12.4545H19.25C18.7733 13.14 18.4267 13.9318 18.275 14.8182ZM23.4533 19.5455C21.785 19.4745 20.3767 17.9264 20.3333 16.0945C20.3117 14.96 20.7558 13.9673 21.4708 13.3055L22.1425 15.3145C22.3483 15.9291 22.9658 16.2482 23.5292 16.0236C24.0925 15.7991 24.385 15.1255 24.1792 14.5109L23.4967 12.4664L23.5075 12.4545C23.9418 12.4384 24.3747 12.5184 24.7799 12.6898C25.1851 12.8612 25.5543 13.1204 25.8651 13.4518C26.1759 13.7831 26.422 14.1798 26.5884 14.6177C26.7548 15.0557 26.8381 15.5259 26.8333 16C26.8333 18.0327 25.3383 19.6164 23.4533 19.5455ZM14.9167 25.4545H10.5833L17.0833 29V26.6364H21.4167L14.9167 23.0909V25.4545Z" fill="url(#paint0_linear_67_170)"/>
</g>
<defs>
<linearGradient id="paint0_linear_67_170" x1="16" y1="3" x2="16" y2="29" gradientUnits="userSpaceOnUse">
<stop stop-color="#FFB60D"/>
<stop offset="1" stop-color="#E59317"/>
</linearGradient>
<clipPath id="clip0_67_170">
<rect width="32" height="32" fill="white"/>
</clipPath>
</defs>
</svg>
